<svg width="192" height="188" viewBox="0 0 192 188" fill="none" xmlns="http://www.w3.org/2000/svg">
<g opacity="0.91">
<g opacity="0.91">
<g opacity="0.91">
<g opacity="0.91">
<g opacity="0.91">
<path opacity="0.91" d="M3.30662 6.63982C2.87202 6.63764 2.44219 6.54949 2.04202 6.38049C1.64186 6.21149 1.27931 5.965 0.975437 5.6553C0.362623 5.03069 0.0217208 4.19038 0.0266644 3.31677C0.0260929 2.4434 0.368414 1.60449 0.980461 0.97949C1.60899 0.383344 2.44279 0.0498273 3.31042 0.0474976C4.17804 0.045168 5.01358 0.374202 5.64532 0.966964C6.25606 1.59981 6.59936 2.44245 6.60418 3.32053C6.60248 4.19368 6.25837 5.03158 5.64532 5.6553C5.34151 5.96715 4.97794 6.21498 4.5762 6.3841C4.17446 6.55322 3.74273 6.64018 3.30662 6.63982Z" fill="white"/>
</g>
</g>
<g opacity="0.91">
<g opacity="0.91">
<path opacity="0.91" d="M167.917 3.32048C167.915 2.88673 167.999 2.45687 168.164 2.05544C168.329 1.65402 168.571 1.28889 168.878 0.980901C169.184 0.672915 169.549 0.428103 169.95 0.260444C170.351 0.0927852 170.782 0.00556291 171.217 0.00375734C171.653 0.00407519 172.084 0.0902837 172.486 0.257418C172.888 0.424552 173.253 0.669309 173.56 0.977594C173.866 1.28588 174.109 1.6516 174.273 2.0537C174.438 2.45579 174.52 2.88632 174.517 3.32048C174.52 4.19641 174.174 5.03766 173.555 5.65985C172.937 6.28204 172.096 6.6344 171.217 6.6397C170.339 6.6321 169.499 6.27901 168.881 5.65732C168.263 5.03563 167.917 4.19571 167.917 3.32048ZM151.13 3.32048C151.128 2.88695 151.211 2.45725 151.376 2.05592C151.54 1.65459 151.783 1.2895 152.089 0.981495C152.395 0.673491 152.759 0.428614 153.16 0.260851C153.561 0.0930878 153.991 0.00572638 154.426 0.00375734C154.862 0.00357668 155.294 0.0894359 155.696 0.256378C156.098 0.423321 156.464 0.66804 156.771 0.976409C157.077 1.28478 157.32 1.65069 157.484 2.05302C157.649 2.45534 157.731 2.88612 157.728 3.32048C157.731 4.19692 157.386 5.03894 156.767 5.66139C156.148 6.28383 155.306 6.63573 154.426 6.6397C153.549 6.63177 152.71 6.27845 152.092 5.65673C151.475 5.035 151.129 4.19526 151.13 3.32048ZM134.341 3.32048C134.337 2.88648 134.42 2.45609 134.584 2.05408C134.748 1.65207 134.99 1.2864 135.297 0.978112C135.603 0.669827 135.968 0.425024 136.37 0.257801C136.772 0.0905781 137.203 0.00423911 137.638 0.00375734C138.074 0.00506902 138.504 0.0919549 138.906 0.259439C139.308 0.426924 139.672 0.671717 139.979 0.979803C140.285 1.28789 140.528 1.65321 140.692 2.05486C140.857 2.45651 140.941 2.88659 140.938 3.32048C140.94 4.19601 140.593 5.0365 139.975 5.6584C139.357 6.28031 138.517 6.63309 137.638 6.6397C137.203 6.63757 136.773 6.55002 136.371 6.38206C135.97 6.2141 135.606 5.96901 135.3 5.66079C134.994 5.35257 134.751 4.98726 134.587 4.58571C134.422 4.18415 134.339 3.75423 134.341 3.32048ZM117.554 3.32048C117.55 2.88648 117.633 2.45609 117.797 2.05408C117.961 1.65207 118.204 1.2864 118.51 0.978112C118.817 0.669827 119.181 0.425024 119.583 0.257801C119.985 0.0905781 120.416 0.00423911 120.851 0.00375734C121.287 0.00523339 121.717 0.0922403 122.119 0.259798C122.52 0.427356 122.884 0.672176 123.191 0.980245C123.497 1.28831 123.74 1.65359 123.904 2.05515C124.069 2.45672 124.152 2.8867 124.15 3.32048C124.151 4.19548 123.805 5.0354 123.187 5.65716C122.57 6.27893 121.73 6.6321 120.853 6.6397C119.974 6.63506 119.133 6.28287 118.514 5.6605C117.896 5.03813 117.55 4.19649 117.554 3.32048ZM100.767 3.32048C100.763 2.88714 100.845 2.45727 101.008 2.05562C101.171 1.65397 101.413 1.28847 101.718 0.980185C102.024 0.671898 102.387 0.426911 102.788 0.259332C103.189 0.0917536 103.62 0.00489414 104.054 0.00375734C104.491 0.00408325 104.922 0.0902142 105.325 0.257211C105.728 0.424208 106.093 0.668786 106.401 0.97692C106.709 1.28505 106.952 1.65068 107.118 2.05284C107.283 2.455 107.368 2.88578 107.366 3.32048C107.366 4.19775 107.018 5.03955 106.398 5.66163C105.777 6.28371 104.935 6.6354 104.054 6.6397C103.177 6.63275 102.339 6.27946 101.722 5.65727C101.106 5.03508 100.763 4.19475 100.767 3.32048ZM83.965 3.32048C83.9622 2.88666 84.0453 2.45657 84.2096 2.05486C84.374 1.65315 84.6163 1.28774 84.9227 0.979586C85.229 0.671434 85.5934 0.426607 85.995 0.25915C86.3965 0.0916934 86.8273 0.0049025 87.2625 0.00375734C87.6981 0.00390605 88.1293 0.0900176 88.5312 0.257123C88.9332 0.424229 89.298 0.66902 89.6046 0.977372C89.9112 1.28572 90.1534 1.65153 90.3174 2.05369C90.4814 2.45585 90.5639 2.88639 90.5601 3.32048C90.5641 4.19659 90.2188 5.03843 89.6002 5.66087C88.9816 6.28331 88.1403 6.6354 87.2612 6.6397C86.3835 6.6321 85.5443 6.27888 84.9268 5.65709C84.3093 5.03529 83.9636 4.19536 83.965 3.32048ZM67.1781 3.32048C67.1753 2.88698 67.2583 2.45719 67.4224 2.05572C67.5865 1.65426 67.8285 1.28902 68.1344 0.980913C68.4404 0.672811 68.8044 0.427906 69.2055 0.260228C69.6066 0.0925508 70.0369 0.00539596 70.4719 0.00375734C70.9075 0.00323532 71.339 0.0888993 71.7412 0.255784C72.1434 0.422669 72.5084 0.667456 72.815 0.97596C73.1216 1.28446 73.3637 1.65055 73.5273 2.053C73.691 2.45545 73.7728 2.88627 73.7682 3.32048C73.7705 3.7542 73.6869 4.18412 73.5223 4.58561C73.3577 4.98711 73.1152 5.3523 72.8088 5.66027C72.5024 5.96824 72.138 6.21294 71.7366 6.38036C71.3351 6.54778 70.9045 6.63463 70.4693 6.63595C69.5922 6.62998 68.7532 6.27765 68.1362 5.65616C67.5193 5.03468 67.1747 4.19475 67.1781 3.32048ZM50.3912 3.32048C50.3885 2.88661 50.4718 2.45648 50.6363 2.05476C50.8008 1.65305 51.0432 1.28765 51.3497 0.979511C51.6562 0.671376 52.0207 0.426569 52.4223 0.259127C52.8239 0.0916854 53.2547 0.00490325 53.69 0.00375734C54.125 0.00572638 54.5553 0.0930878 54.9564 0.260851C55.3574 0.428614 55.7214 0.673491 56.0275 0.981495C56.3337 1.2895 56.5759 1.65459 56.7404 2.05592C56.9049 2.45725 56.9884 2.88695 56.9863 3.32048C56.9863 4.19496 56.6401 5.03414 56.0229 5.65565C55.4057 6.27716 54.5673 6.63079 53.69 6.6397C52.8121 6.63243 51.9728 6.27932 51.3552 5.65745C50.7376 5.03558 50.392 4.19546 50.3937 3.32048H50.3912ZM33.598 3.32048C33.5947 2.88614 33.6776 2.45543 33.8418 2.05313C34.0061 1.65082 34.2486 1.28485 34.5553 0.976268C34.8619 0.667684 35.2268 0.422572 35.6289 0.255027C36.031 0.0874833 36.4623 0.000812893 36.8981 0C37.7766 0.00497 38.6172 0.356882 39.2358 0.978601C39.8544 1.60032 40.2005 2.44112 40.1981 3.31672C40.1995 4.1926 39.8533 5.03349 39.2351 5.65599C38.6169 6.27849 37.7768 6.6321 36.8981 6.6397C36.0192 6.63473 35.1781 6.28248 34.5594 5.66022C33.9408 5.03795 33.595 4.19651 33.598 3.32048ZM16.8136 3.32048C16.8096 2.88666 16.8919 2.45635 17.0556 2.05436C17.2193 1.65238 17.4612 1.28667 17.7674 0.978335C18.0736 0.669999 18.438 0.425136 18.8397 0.257867C19.2413 0.0905989 19.6721 0.00423519 20.1074 0.00375734C20.5427 0.0049025 20.9734 0.0916934 21.375 0.25915C21.7765 0.426607 22.1409 0.671434 22.4472 0.979586C22.7536 1.28774 22.9959 1.65315 23.1603 2.05486C23.3246 2.45657 23.4078 2.88666 23.405 3.32048C23.4077 4.19598 23.0621 5.03686 22.4441 5.65897C21.826 6.28109 20.9858 6.63374 20.1074 6.6397C19.2292 6.6344 18.389 6.28184 17.7714 5.65947C17.1538 5.0371 16.8093 4.19583 16.8136 3.32048Z" fill="white"/>
</g>
</g>
<g opacity="0.91">
<g opacity="0.91">
<path opacity="0.91" d="M188.001 6.63599C187.568 6.63634 187.138 6.55019 186.739 6.38261C186.339 6.21504 185.977 5.96943 185.674 5.66025C185.058 5.03534 184.709 4.19653 184.701 3.32047C184.71 2.44414 185.058 1.60511 185.674 0.97945C186.303 0.382577 187.137 0.0486069 188.005 0.0462769C188.873 0.0439469 189.709 0.373434 190.341 0.966924C190.955 1.59858 191.303 2.44094 191.313 3.32047C191.306 4.196 190.958 5.03474 190.344 5.66025C190.039 5.97113 189.674 6.21772 189.272 6.38534C188.87 6.55297 188.437 6.63821 188.001 6.63599Z" fill="white"/>
</g>
</g>
</g>
<g opacity="0.91">
<g opacity="0.91">
<g opacity="0.91">
<path opacity="0.91" d="M3.30657 24.9028C2.65328 24.8883 2.01846 24.6838 1.48014 24.3146C0.94181 23.9454 0.523411 23.4275 0.276335 22.8246C0.0292586 22.2216 -0.0357109 21.5598 0.0893731 20.9206C0.214457 20.2813 0.524139 19.6923 0.980422 19.2261C1.60485 18.6095 2.44944 18.2655 3.32839 18.2696C4.20734 18.2737 5.04867 18.6256 5.66727 19.248C6.28586 19.8704 6.63105 20.7122 6.62693 21.5883C6.6228 22.4644 6.26968 23.303 5.64525 23.9195C5.02403 24.5385 4.1849 24.8913 3.30657 24.9028Z" fill="white"/>
</g>
</g>
<g opacity="0.91">
<g opacity="0.91">
<path opacity="0.91" d="M167.917 21.5816C167.915 21.1477 167.998 20.7177 168.163 20.3161C168.328 19.9145 168.57 19.5492 168.877 19.2412C169.183 18.9331 169.548 18.6883 169.949 18.5208C170.351 18.3532 170.782 18.2662 171.217 18.2647C171.652 18.2656 172.083 18.3521 172.485 18.5195C172.887 18.6868 173.251 18.9316 173.557 19.2399C173.864 19.5481 174.106 19.9136 174.27 20.3155C174.435 20.7174 174.518 21.1476 174.514 21.5816C174.518 22.4571 174.172 23.2981 173.554 23.92C172.936 24.5419 172.095 24.8937 171.217 24.8984C170.339 24.8928 169.498 24.5406 168.88 23.919C168.261 23.2974 167.915 22.457 167.917 21.5816ZM151.13 21.5816C151.127 20.7063 151.472 19.8655 152.09 19.2436C152.708 18.6218 153.548 18.2697 154.426 18.2647C155.305 18.2684 156.147 18.6199 156.766 19.2418C157.385 19.8638 157.731 20.7054 157.728 21.5816C157.729 22.4576 157.383 23.2985 156.764 23.9209C156.146 24.5433 155.305 24.8965 154.426 24.9034C153.549 24.8942 152.71 24.5401 152.093 23.9181C151.476 23.2961 151.13 22.4564 151.13 21.5816ZM134.341 21.5816C134.337 21.1476 134.42 20.7173 134.584 20.3153C134.748 19.9134 134.991 19.5478 135.297 19.2395C135.604 18.9312 135.968 18.6864 136.37 18.5191C136.772 18.3518 137.203 18.2654 137.638 18.2647C138.517 18.2681 139.359 18.6193 139.979 19.2413C140.599 19.8633 140.945 20.7051 140.942 21.5816C140.941 22.4558 140.594 23.2944 139.976 23.9148C139.358 24.5352 138.519 24.8874 137.642 24.8946C137.207 24.8932 136.776 24.8063 136.375 24.639C135.974 24.4717 135.609 24.2272 135.303 23.9196C134.996 23.6119 134.753 23.2471 134.588 22.846C134.423 22.4448 134.339 22.0152 134.341 21.5816ZM117.559 21.5816C117.555 21.1472 117.637 20.7163 117.801 20.3138C117.964 19.9113 118.207 19.5451 118.513 19.2363C118.82 18.9276 119.185 18.6825 119.587 18.5151C119.989 18.3476 120.42 18.2613 120.856 18.261C121.291 18.2631 121.722 18.3507 122.123 18.5188C122.524 18.6869 122.888 18.9322 123.194 19.2406C123.5 19.549 123.742 19.9145 123.906 20.3162C124.07 20.7179 124.153 21.1479 124.15 21.5816C124.152 22.457 123.806 23.2976 123.188 23.9193C122.57 24.541 121.729 24.8931 120.851 24.8984C120.416 24.8971 119.986 24.8101 119.585 24.6426C119.183 24.475 118.819 24.2301 118.514 23.9219C118.208 23.6137 117.966 23.2483 117.802 22.8467C117.638 22.445 117.555 22.0151 117.559 21.5816ZM100.767 21.5816C100.762 21.1488 100.844 20.7195 101.007 20.3182C101.169 19.917 101.41 19.5517 101.715 19.2435C102.02 18.9353 102.383 18.6901 102.783 18.5221C103.183 18.3542 103.613 18.2667 104.047 18.2647C104.483 18.2646 104.914 18.3504 105.316 18.5174C105.719 18.6843 106.084 18.929 106.391 19.2374C106.698 19.5458 106.94 19.9117 107.105 20.3141C107.269 20.7164 107.352 21.1472 107.348 21.5816C107.351 22.4567 107.006 23.2973 106.388 23.9186C105.769 24.5399 104.929 24.891 104.05 24.8946C103.175 24.8877 102.338 24.5351 101.722 23.9142C101.107 23.2932 100.763 22.4544 100.767 21.5816ZM83.9648 21.5816C83.9622 21.1476 84.0454 20.7174 84.2098 20.3155C84.3741 19.9137 84.6164 19.5481 84.9227 19.2396C85.229 18.9312 85.5933 18.686 85.9948 18.5181C86.3962 18.3502 86.827 18.2628 87.2624 18.261C87.698 18.2621 88.129 18.349 88.5308 18.5167C88.9325 18.6844 89.2971 18.9296 89.6036 19.2382C89.91 19.5467 90.1522 19.9126 90.3163 20.3148C90.4804 20.7169 90.5632 21.1474 90.5599 21.5816C90.5619 22.0155 90.4781 22.4455 90.3132 22.8471C90.1483 23.2487 89.9056 23.614 89.599 23.922C89.2924 24.2301 88.9279 24.4749 88.5263 24.6424C88.1247 24.8099 87.6939 24.8969 87.2586 24.8984C86.3815 24.8908 85.543 24.5378 84.926 23.9165C84.309 23.2951 83.9635 22.4558 83.9648 21.5816ZM67.1729 21.5816C67.1696 20.7059 67.5151 19.8646 68.1337 19.2427C68.7522 18.6208 69.5932 18.2691 70.4717 18.2647C70.907 18.2657 71.3377 18.3524 71.7393 18.5198C72.1408 18.6872 72.5052 18.9321 72.8115 19.2403C73.1178 19.5485 73.36 19.914 73.5241 20.3158C73.6883 20.7176 73.7712 21.1478 73.768 21.5816C73.7714 22.4577 73.4254 23.2993 72.8064 23.9213C72.1873 24.5433 71.3457 24.8947 70.4667 24.8984C69.59 24.8895 68.7523 24.5361 68.1355 23.915C67.5188 23.294 67.1729 22.4554 67.1729 21.5816ZM50.3936 21.5816C50.3899 21.1477 50.4725 20.7175 50.6365 20.3156C50.8005 19.9137 51.0427 19.5482 51.3491 19.2401C51.6555 18.932 52.0202 18.6874 52.4219 18.5204C52.8237 18.3534 53.2546 18.2674 53.6899 18.2672C54.1246 18.2687 54.5547 18.3557 54.9557 18.5232C55.3566 18.6907 55.7204 18.9354 56.0263 19.2433C56.3322 19.5512 56.5741 19.9162 56.7381 20.3174C56.9022 20.7187 56.9852 21.1483 56.9824 21.5816C56.9824 22.4557 56.6358 23.2944 56.0182 23.915C55.4005 24.5356 54.5618 24.8877 53.6848 24.8946C53.2505 24.8925 52.8208 24.8051 52.4203 24.6375C52.0198 24.4698 51.6564 24.2252 51.3508 23.9175C51.0451 23.6099 50.8033 23.2452 50.6391 22.8444C50.4748 22.4436 50.3914 22.0145 50.3936 21.5816ZM33.6067 21.5816C33.603 21.1471 33.6856 20.7163 33.8498 20.3138C34.014 19.9113 34.2564 19.5452 34.5632 19.2365C34.8699 18.9279 35.2349 18.6828 35.6372 18.5153C36.0394 18.3479 36.4709 18.2615 36.9067 18.261C37.3417 18.2631 37.7719 18.3508 38.1728 18.5189C38.5737 18.687 38.9374 18.9324 39.2431 19.2408C39.5487 19.5493 39.7902 19.9148 39.9539 20.3165C40.1176 20.7182 40.2001 21.1481 40.1968 21.5816C40.1991 22.457 39.8532 23.2976 39.2349 23.9193C38.6166 24.541 37.7762 24.8931 36.898 24.8984C36.4629 24.8966 36.0325 24.8093 35.6314 24.6416C35.2302 24.4739 34.8662 24.229 34.56 23.921C34.2539 23.6129 34.0117 23.2478 33.8472 22.8464C33.6828 22.4449 33.5993 22.0152 33.6016 21.5816H33.6067ZM16.8173 21.5816C16.8138 21.1482 16.8963 20.7184 17.0599 20.3169C17.2235 19.9153 17.4651 19.55 17.7708 19.2418C18.0766 18.9336 18.4403 18.6886 18.8413 18.521C19.2422 18.3533 19.6725 18.2662 20.1073 18.2647C20.9863 18.2687 21.8278 18.6202 22.447 19.2421C23.0663 19.864 23.4126 20.7054 23.4099 21.5816C23.4093 22.4562 23.0625 23.2953 22.4448 23.9165C21.8272 24.5378 20.9885 24.8911 20.1111 24.8996C19.233 24.893 18.3932 24.5404 17.7751 23.9187C17.1571 23.297 16.8109 22.4568 16.8123 21.5816H16.8173Z" fill="white"/>
</g>
</g>
<g opacity="0.91">
<g opacity="0.91">
<path opacity="0.91" d="M188.001 24.8982C187.126 24.8917 186.289 24.5399 185.674 23.9199C185.058 23.2956 184.71 22.457 184.702 21.5814C184.702 20.7074 185.051 19.8692 185.671 19.2512C186.291 18.6332 187.132 18.286 188.009 18.286C188.886 18.286 189.727 18.6332 190.347 19.2512C190.967 19.8692 191.315 20.7074 191.315 21.5814C191.309 22.4578 190.961 23.2976 190.346 23.9237C189.724 24.5434 188.881 24.8935 188.001 24.8982Z" fill="white"/>
</g>
</g>
</g>
<g opacity="0.91">
<g opacity="0.91">
<g opacity="0.91">
<path opacity="0.91" d="M3.32529 42.5804C2.4475 42.5813 1.60476 42.237 0.980273 41.6222C0.362946 40.9919 0.0139866 40.1481 0.00634766 39.2674C0.0124993 38.7287 0.151336 38.1998 0.410645 37.7272C0.669953 37.2546 1.04181 36.8527 1.49349 36.5569C1.94516 36.2611 2.46284 36.0805 3.00099 36.0308C3.53914 35.9812 4.08128 36.0641 4.57975 36.2723C5.07822 36.4804 5.51772 36.8075 5.85964 37.2246C6.20156 37.6418 6.43542 38.1363 6.54064 38.6647C6.64586 39.193 6.61921 39.7391 6.46305 40.2548C6.3069 40.7705 6.02602 41.24 5.6451 41.6222C5.02803 42.2327 4.1948 42.5769 3.32529 42.5804Z" fill="white"/>
</g>
</g>
<g opacity="0.91">
<g opacity="0.91">
<path opacity="0.91" d="M167.917 39.2625C167.917 38.3876 168.264 37.5481 168.882 36.9268C169.5 36.3054 170.339 35.9524 171.217 35.9445C171.652 35.9466 172.083 36.0341 172.484 36.202C172.885 36.3699 173.249 36.6149 173.555 36.923C173.861 37.2311 174.103 37.5963 174.268 37.9977C174.432 38.3991 174.516 38.8289 174.513 39.2625C174.517 39.6967 174.434 40.1273 174.27 40.5295C174.105 40.9317 173.863 41.2975 173.556 41.6059C173.249 41.9143 172.884 42.1592 172.482 42.3264C172.08 42.4937 171.649 42.5801 171.213 42.5805C170.335 42.5759 169.494 42.2238 168.876 41.6016C168.258 40.9794 167.913 40.1381 167.917 39.2625ZM151.129 39.2625C151.129 38.3878 151.475 37.5484 152.092 36.9269C152.71 36.3055 153.549 35.9524 154.427 35.9445C155.305 35.9511 156.146 36.304 156.764 36.9261C157.383 37.5483 157.729 38.3891 157.728 39.265C157.731 40.1413 157.385 40.9829 156.766 41.6052C156.147 42.2275 155.306 42.5797 154.427 42.5843C153.547 42.5793 152.706 42.2266 152.088 41.6038C151.469 40.9809 151.125 40.1388 151.129 39.2625ZM134.343 39.2625C134.341 38.8287 134.424 38.3987 134.589 37.9971C134.753 37.5956 134.996 37.2303 135.302 36.9223C135.609 36.6143 135.973 36.3696 136.375 36.2022C136.776 36.0349 137.207 35.9481 137.642 35.947C138.52 35.9519 139.359 36.3035 139.977 36.9245C140.595 37.5455 140.941 38.3854 140.938 39.26C140.941 39.6941 140.858 40.1245 140.694 40.5264C140.529 40.9284 140.287 41.294 139.98 41.6023C139.673 41.9106 139.309 42.1555 138.907 42.3229C138.505 42.4904 138.074 42.5771 137.638 42.578C137.203 42.5782 136.772 42.4925 136.37 42.3257C135.968 42.1589 135.603 41.9145 135.297 41.6065C134.99 41.2984 134.748 40.9329 134.584 40.5311C134.42 40.1292 134.337 39.6989 134.341 39.265L134.343 39.2625ZM117.559 39.2625C117.556 38.829 117.639 38.3992 117.803 37.9976C117.967 37.5961 118.209 37.2307 118.514 36.9225C118.82 36.6143 119.184 36.3692 119.585 36.2014C119.986 36.0336 120.417 35.9463 120.851 35.9445C121.73 35.9511 122.569 36.3037 123.187 36.9254C123.805 37.5471 124.152 38.3873 124.15 39.2625C124.153 39.6963 124.069 40.1263 123.905 40.528C123.741 40.9296 123.498 41.295 123.192 41.6032C122.886 41.9113 122.521 42.1563 122.12 42.324C121.719 42.4917 121.288 42.5789 120.853 42.5805C120.417 42.5806 119.986 42.4945 119.584 42.3273C119.182 42.1602 118.817 41.9152 118.511 41.6066C118.205 41.298 117.963 40.932 117.799 40.5296C117.636 40.1273 117.554 39.6966 117.559 39.2625ZM100.753 39.2625C100.751 38.3872 101.097 37.5466 101.715 36.9248C102.333 36.3029 103.173 35.9504 104.051 35.9445C104.486 35.9461 104.917 36.0333 105.318 36.201C105.719 36.3687 106.084 36.6137 106.39 36.9219C106.696 37.23 106.938 37.5954 107.103 37.9971C107.267 38.3987 107.351 38.8287 107.348 39.2625C107.352 39.6966 107.269 40.127 107.105 40.5291C106.941 40.9312 106.699 41.297 106.392 41.6054C106.086 41.9138 105.721 42.1587 105.319 42.326C104.917 42.4934 104.486 42.5799 104.051 42.5805C103.615 42.5799 103.184 42.4934 102.782 42.326C102.381 42.1587 102.016 41.9138 101.709 41.6054C101.403 41.297 101.161 40.9312 100.996 40.5291C100.832 40.127 100.75 39.6966 100.753 39.2625ZM83.9651 39.2625C83.963 38.3879 84.3083 37.5481 84.9254 36.9264C85.5425 36.3048 86.3814 35.9517 87.2588 35.9445C87.6944 35.9463 88.1253 36.0336 88.527 36.2015C88.9287 36.3694 89.2933 36.6145 89.5999 36.9229C89.9064 37.2313 90.1491 37.5968 90.3138 37.9987C90.4786 38.4006 90.5623 38.8309 90.5602 39.265C90.5633 39.6989 90.4804 40.1291 90.3161 40.5309C90.1519 40.9326 89.9096 41.2981 89.6031 41.6062C89.2967 41.9144 88.9321 42.1591 88.5304 42.3263C88.1288 42.4935 87.6979 42.5799 87.2626 42.5805C86.8274 42.5789 86.3968 42.4917 85.9954 42.324C85.594 42.1563 85.2297 41.9113 84.9234 41.6032C84.6171 41.295 84.3748 40.9296 84.2104 40.528C84.0459 40.1263 83.9626 39.6963 83.9651 39.2625ZM67.1731 39.2625C67.1725 38.3875 67.5188 37.5477 68.1368 36.9261C68.7547 36.3046 69.5941 35.9517 70.472 35.9445C70.9072 35.9464 71.3378 36.0339 71.7392 36.2019C72.1405 36.3699 72.5047 36.6151 72.8108 36.9235C73.117 37.232 73.3591 37.5975 73.5234 37.9993C73.6877 38.401 73.7709 38.8312 73.7682 39.265C73.7721 39.6993 73.6896 40.1301 73.5255 40.5325C73.3615 40.9349 73.1191 41.3009 72.8125 41.6095C72.5058 41.9181 72.1409 42.1631 71.7387 42.3304C71.3366 42.4977 70.9052 42.584 70.4694 42.5843C69.591 42.5774 68.7511 42.224 68.1334 41.6015C67.5157 40.979 67.1705 40.138 67.1731 39.2625ZM50.3887 39.2625C50.3887 38.3881 50.7349 37.5491 51.3522 36.9277C51.9695 36.3064 52.8078 35.953 53.6851 35.9445C54.5638 35.9511 55.4042 36.304 56.0228 36.9261C56.6413 37.5483 56.9877 38.3891 56.9864 39.265C56.9891 40.1403 56.6437 40.981 56.0259 41.6031C55.4082 42.2252 54.5683 42.578 53.6901 42.5843C52.8111 42.5793 51.97 42.2266 51.3519 41.6037C50.7337 40.9808 50.3891 40.1386 50.3938 39.2625H50.3887ZM33.6018 39.2625C33.5995 38.8289 33.683 38.399 33.8474 37.9975C34.0118 37.5961 34.254 37.2308 34.5602 36.9227C34.8663 36.6145 35.2303 36.3695 35.6315 36.2017C36.0327 36.0338 36.4631 35.9464 36.8982 35.9445C37.7761 35.9521 38.6154 36.305 39.2335 36.9264C39.8515 37.5479 40.1982 38.3875 40.1982 39.2625C40.2016 40.1389 39.856 40.9808 39.2373 41.6035C38.6187 42.2263 37.7774 42.579 36.8982 42.5843C36.4625 42.5833 36.0313 42.4965 35.6294 42.3287C35.2276 42.161 34.863 41.9157 34.5566 41.607C34.2502 41.2982 34.0082 40.9322 33.8443 40.5298C33.6805 40.1274 33.598 39.6967 33.6018 39.2625ZM16.8099 39.2625C16.8079 38.3871 17.1539 37.5465 17.7721 36.9247C18.3903 36.3029 19.2305 35.9504 20.1087 35.9445C20.9871 35.9511 21.8272 36.3041 22.4451 36.9264C23.0631 37.5486 23.4086 38.3895 23.4063 39.265C23.4086 39.6988 23.3252 40.1288 23.1607 40.5305C22.9962 40.9321 22.7539 41.2975 22.4476 41.6057C22.1414 41.914 21.7772 42.1591 21.3759 42.327C20.9746 42.4949 20.544 42.5823 20.1087 42.5843C19.6729 42.5835 19.2416 42.4968 18.8395 42.3291C18.4374 42.1615 18.0726 41.9162 17.7659 41.6075C17.4593 41.2988 17.217 40.9326 17.053 40.5302C16.8889 40.1277 16.8063 39.6969 16.8099 39.2625Z" fill="white"/>
</g>
</g>
<g opacity="0.91">
<g opacity="0.91">
<path opacity="0.91" d="M188.001 42.5843C187.13 42.5792 186.295 42.2338 185.676 41.6223C185.06 40.9896 184.712 40.1453 184.702 39.2638C184.708 38.614 184.907 37.9805 185.274 37.4431C185.64 36.9057 186.158 36.4885 186.762 36.244C187.366 35.9995 188.029 35.9386 188.668 36.0691C189.307 36.1996 189.892 36.5156 190.351 36.9773C190.81 37.4389 191.121 38.0256 191.246 38.6634C191.371 39.3012 191.304 39.9615 191.053 40.5612C190.802 41.1609 190.378 41.6732 189.836 42.0334C189.293 42.3937 188.656 42.5858 188.004 42.5856L188.001 42.5843Z" fill="white"/>
</g>
</g>
</g>
<g opacity="0.91">
<g opacity="0.91">
<g opacity="0.91">
<path opacity="0.91" d="M3.32543 60.8432C2.44794 60.8377 1.60694 60.4923 0.980402 59.8799C0.366828 59.2604 0.0229195 58.4248 0.0231935 57.5542C0.0234675 56.6836 0.367934 55.8482 0.981897 55.2291C1.59586 54.6099 2.42989 54.2567 3.30326 54.2462C4.17663 54.2357 5.01898 54.5686 5.64778 55.1728C6.26166 55.8029 6.60474 56.6468 6.60411 57.5251C6.60528 58.3995 6.26186 59.2393 5.64778 59.8637C5.34462 60.1715 4.98334 60.4165 4.58477 60.5846C4.18619 60.7528 3.75821 60.8406 3.32543 60.8432Z" fill="white"/>
</g>
</g>
<g opacity="0.91">
<g opacity="0.91">
<path opacity="0.91" d="M167.917 57.5301C167.913 56.6542 168.259 55.8128 168.878 55.1909C169.497 54.5689 170.338 54.2173 171.217 54.2134C171.652 54.2142 172.083 54.3007 172.485 54.4681C172.886 54.6354 173.251 54.8802 173.557 55.1884C173.864 55.4967 174.106 55.8622 174.27 56.2641C174.435 56.6659 174.517 57.0962 174.514 57.5301C174.518 58.4059 174.173 59.2474 173.555 59.8696C172.936 60.4918 172.095 60.8438 171.217 60.8481C170.339 60.8411 169.499 60.4884 168.881 59.8669C168.263 59.2453 167.916 58.4053 167.917 57.5301ZM151.13 57.5301C151.126 57.0964 151.209 56.6663 151.373 56.2645C151.538 55.8628 151.78 55.4974 152.086 55.1894C152.393 54.8814 152.757 54.6368 153.159 54.4697C153.56 54.3026 153.991 54.2163 154.426 54.2159C155.305 54.2192 156.146 54.5702 156.765 55.1917C157.384 55.8132 157.73 56.6543 157.727 57.5301C157.729 58.4054 157.382 59.2455 156.763 59.8667C156.145 60.4878 155.304 60.8393 154.426 60.8443C153.991 60.8428 153.56 60.7557 153.158 60.5879C152.757 60.42 152.392 60.1748 152.086 59.8663C151.78 59.5578 151.538 59.1921 151.374 58.7901C151.21 58.3881 151.127 57.9578 151.13 57.5238V57.5301ZM134.34 57.5301C134.337 57.0961 134.42 56.6658 134.584 56.2639C134.748 55.8619 134.991 55.4963 135.297 55.1881C135.604 54.8798 135.968 54.635 136.37 54.4677C136.772 54.3005 137.203 54.214 137.638 54.2134C138.073 54.2147 138.504 54.3015 138.905 54.4688C139.307 54.6361 139.671 54.8807 139.977 55.1885C140.284 55.4963 140.527 55.8614 140.691 56.2627C140.856 56.6641 140.94 57.0939 140.938 57.5276C140.941 58.4034 140.595 59.2446 139.976 59.8664C139.358 60.4883 138.517 60.84 137.638 60.8443C137.203 60.8425 136.773 60.7554 136.372 60.5878C135.971 60.4203 135.607 60.1757 135.301 59.8679C134.994 59.5601 134.752 59.1953 134.587 58.7942C134.422 58.393 134.339 57.9635 134.34 57.5301ZM117.554 57.5301C117.551 57.0961 117.634 56.6658 117.798 56.264C117.962 55.8621 118.205 55.4966 118.511 55.1884C118.818 54.8802 119.182 54.6354 119.584 54.4681C119.986 54.3007 120.417 54.2142 120.852 54.2134C121.288 54.215 121.718 54.3021 122.119 54.4697C122.521 54.6373 122.885 54.8822 123.192 55.1902C123.498 55.4982 123.74 55.8635 123.905 56.265C124.07 56.6664 124.153 57.0964 124.151 57.5301C124.152 58.405 123.805 59.2446 123.187 59.8661C122.569 60.4875 121.73 60.8405 120.852 60.8481C119.974 60.8431 119.133 60.491 118.515 59.869C117.896 59.2469 117.551 58.4058 117.554 57.5301ZM100.75 57.5301C100.748 57.0965 100.831 56.6667 100.996 56.2653C101.16 55.8639 101.403 55.4988 101.709 55.1907C102.015 54.8827 102.379 54.6378 102.78 54.4701C103.181 54.3024 103.612 54.2152 104.047 54.2134C104.483 54.2133 104.915 54.2992 105.318 54.4661C105.721 54.6329 106.087 54.8774 106.395 55.1856C106.703 55.4937 106.947 55.8594 107.113 56.2618C107.279 56.6641 107.363 57.0951 107.362 57.5301C107.362 58.4077 107.013 59.2496 106.392 59.8714C105.77 60.4933 104.927 60.8444 104.047 60.8481C103.169 60.8398 102.331 60.4866 101.713 59.8652C101.096 59.2438 100.75 58.4046 100.75 57.5301ZM83.9647 57.5301C83.9622 57.0966 84.0456 56.6669 84.21 56.2655C84.3744 55.8642 84.6167 55.4991 84.9229 55.1912C85.2291 54.8834 85.5932 54.6388 85.9944 54.4714C86.3957 54.304 86.826 54.2172 87.261 54.2159C87.6965 54.2163 88.1276 54.3027 88.5295 54.4699C88.9314 54.6371 89.2961 54.8819 89.6027 55.1901C89.9093 55.4984 90.1517 55.8641 90.316 56.2661C90.4802 56.6681 90.5631 57.0985 90.5598 57.5326C90.5631 58.4082 90.2178 59.2493 89.5996 59.8714C88.9813 60.4934 88.1407 60.8456 87.2622 60.8506C86.3828 60.844 85.5418 60.4901 84.9236 59.8665C84.3055 59.2429 83.9607 58.4004 83.9647 57.5238V57.5301ZM67.1778 57.5301C67.1753 57.0967 67.2586 56.667 67.4228 56.2657C67.587 55.8644 67.829 55.4993 68.1349 55.1912C68.4408 54.8832 68.8046 54.6383 69.2056 54.4705C69.6065 54.3027 70.0368 54.2153 70.4716 54.2134C70.9068 54.2145 71.3375 54.3013 71.7389 54.4688C72.1404 54.6362 72.5047 54.8811 72.811 55.1893C73.1173 55.4974 73.3595 55.8629 73.5237 56.2646C73.6879 56.6663 73.7709 57.0963 73.7679 57.5301C73.7702 58.405 73.4244 59.2452 72.8063 59.8664C72.1882 60.4877 71.3482 60.8393 70.4703 60.8443C69.5941 60.8357 68.7567 60.4828 68.1402 59.8622C67.5236 59.2415 67.1778 58.4035 67.1778 57.5301ZM50.3871 57.5301C50.3838 57.096 50.4666 56.6655 50.6307 56.2633C50.7949 55.8612 51.0371 55.4953 51.3435 55.1868C51.6499 54.8782 52.0145 54.633 52.4163 54.4653C52.8181 54.2977 53.2491 54.2107 53.6847 54.2096C54.5636 54.2142 55.4048 54.5662 56.0237 55.1882C56.6426 55.8102 56.9887 56.6516 56.986 57.5276C56.9874 58.4034 56.641 59.2443 56.0224 59.8664C55.4039 60.4885 54.5635 60.8415 53.6847 60.8481C53.2496 60.8461 52.8191 60.7587 52.4179 60.5909C52.0166 60.4231 51.6525 60.1781 51.3462 59.87C51.04 59.5618 50.7977 59.1966 50.6331 58.7951C50.4686 58.3936 50.385 57.9638 50.3871 57.5301ZM33.6015 57.5301C33.5982 57.0964 33.681 56.6663 33.8451 56.2645C34.0092 55.8628 34.2515 55.4974 34.5578 55.1894C34.8642 54.8814 35.2286 54.6368 35.6302 54.4697C36.0318 54.3026 36.4626 54.2163 36.8978 54.2159C37.333 54.2175 37.7636 54.3046 38.1649 54.4722C38.5663 54.6399 38.9306 54.8847 39.237 55.1927C39.5434 55.5008 39.7858 55.866 39.9505 56.2675C40.1151 56.6689 40.1988 57.0989 40.1966 57.5326C40.1983 58.4069 39.8527 59.2463 39.2352 59.8673C38.6178 60.4884 37.7788 60.8405 36.9016 60.8468C36.4658 60.8453 36.0345 60.7581 35.6326 60.5902C35.2307 60.4223 34.8659 60.1769 34.5594 59.8682C34.2528 59.5595 34.0104 59.1935 33.846 58.7912C33.6816 58.3889 33.5985 57.9582 33.6015 57.5238V57.5301ZM16.8133 57.5301C16.8097 57.096 16.8923 56.6656 17.0563 56.2635C17.2204 55.8614 17.4627 55.4957 17.7692 55.1873C18.0758 54.879 18.4405 54.6342 18.8424 54.4671C19.2443 54.2999 19.6754 54.2137 20.1109 54.2134C20.5458 54.2148 20.976 54.3018 21.3771 54.4692C21.7782 54.6367 22.1422 54.8813 22.4482 55.1892C22.7543 55.497 22.9965 55.862 23.1608 56.2633C23.3252 56.6646 23.4084 57.0942 23.406 57.5276C23.4093 58.4031 23.0639 59.2441 22.4456 59.8659C21.8274 60.4878 20.9868 60.8397 20.1084 60.8443C19.6737 60.8423 19.2437 60.7551 18.8428 60.5874C18.442 60.4198 18.0782 60.1751 17.7722 59.8674C17.4662 59.5596 17.2241 59.1948 17.0596 58.7938C16.895 58.3927 16.8114 57.9633 16.8133 57.5301Z" fill="white"/>
</g>
</g>
<g opacity="0.91">
<g opacity="0.91">
<path opacity="0.91" d="M188.001 60.8446C187.128 60.8399 186.292 60.4941 185.673 59.8813C185.06 59.2481 184.712 58.4061 184.7 57.5265C184.699 56.8748 184.892 56.2374 185.254 55.6946C185.616 55.1519 186.131 54.728 186.734 54.4765C187.337 54.225 188.002 54.157 188.644 54.2812C189.286 54.4053 189.876 54.716 190.341 55.1742C190.956 55.8047 191.304 56.6471 191.313 57.5265C191.307 58.402 190.96 59.2409 190.344 59.8651C190.038 60.1744 189.673 60.4202 189.271 60.5884C188.869 60.7565 188.437 60.8436 188.001 60.8446Z" fill="white"/>
</g>
</g>
</g>
<g opacity="0.91">
<g opacity="0.91">
<g opacity="0.91">
<path opacity="0.91" d="M3.30771 77.412C2.43543 77.41 1.59909 77.0653 0.980294 76.4525C0.369051 75.8196 0.0260888 74.9762 0.0227051 74.0977C0.0286638 73.5597 0.167235 73.0315 0.426235 72.5594C0.685235 72.0874 1.05673 71.686 1.50797 71.3907C1.9592 71.0954 2.47636 70.9153 3.0139 70.866C3.55144 70.8168 4.0929 70.9001 4.59055 71.1085C5.0882 71.317 5.52678 71.6442 5.86772 72.0613C6.20865 72.4784 6.44147 72.9727 6.54565 73.5006C6.64983 74.0285 6.62219 74.5739 6.46515 75.0886C6.30812 75.6034 6.02651 76.0717 5.64513 76.4525C5.02324 77.0668 4.18325 77.4116 3.30771 77.412Z" fill="white"/>
</g>
</g>
<g opacity="0.91">
<g opacity="0.91">
<path opacity="0.91" d="M167.917 74.0941C167.916 73.2194 168.263 72.3801 168.881 71.7594C169.5 71.1387 170.339 70.787 171.217 70.7811C172.095 70.7847 172.935 71.1358 173.554 71.7571C174.172 72.3783 174.518 73.2189 174.514 74.0941C174.518 74.5282 174.436 74.9588 174.272 75.3611C174.108 75.7633 173.866 76.1292 173.559 76.4376C173.252 76.7461 172.888 76.991 172.486 77.1582C172.084 77.3255 171.652 77.4118 171.217 77.4121C170.781 77.4111 170.35 77.3244 169.948 77.1569C169.547 76.9895 169.182 76.7446 168.875 76.4363C168.569 76.128 168.326 75.7624 168.162 75.3605C167.997 74.9585 167.914 74.5282 167.917 74.0941ZM151.13 74.0941C151.126 73.2186 151.471 72.3774 152.089 71.7554C152.707 71.1335 153.548 70.7816 154.426 70.7773C155.305 70.7816 156.146 71.1333 156.765 71.7551C157.384 72.377 157.73 73.2181 157.727 74.0941C157.731 74.5284 157.648 74.959 157.483 75.3611C157.319 75.7633 157.076 76.1291 156.769 76.4375C156.462 76.7459 156.097 76.9907 155.695 77.158C155.293 77.3252 154.862 77.4116 154.426 77.4121C153.991 77.4114 153.56 77.3249 153.158 77.1576C152.756 76.9902 152.392 76.7452 152.085 76.4368C151.779 76.1284 151.537 75.7626 151.373 75.3606C151.209 74.9585 151.126 74.5281 151.13 74.0941ZM134.339 74.0941C134.336 73.2183 134.681 72.3769 135.3 71.7549C135.918 71.1329 136.759 70.7813 137.638 70.7773C138.517 70.783 139.358 71.1356 139.976 71.758C140.595 72.3804 140.941 73.2218 140.938 74.0978C140.94 74.5315 140.856 74.9613 140.691 75.3627C140.527 75.764 140.284 76.1291 139.977 76.4369C139.671 76.7447 139.307 76.9893 138.905 77.1566C138.504 77.324 138.073 77.4108 137.638 77.4121C137.203 77.4113 136.772 77.3247 136.37 77.1572C135.968 76.9898 135.603 76.7449 135.297 76.4365C134.991 76.1282 134.748 75.7625 134.584 75.3605C134.42 74.9585 134.337 74.5281 134.34 74.0941H134.339ZM117.554 74.0941C117.552 73.6605 117.635 73.2307 117.8 72.8294C117.965 72.4281 118.207 72.063 118.513 71.755C118.819 71.447 119.183 71.2021 119.585 71.0344C119.986 70.8666 120.416 70.7793 120.851 70.7773C121.73 70.7836 122.57 71.1365 123.189 71.7587C123.807 72.381 124.153 73.222 124.151 74.0978C124.154 74.9728 123.809 75.8132 123.191 76.435C122.574 77.0569 121.734 77.4095 120.856 77.4158C120.42 77.4153 119.988 77.3289 119.586 77.1614C119.183 76.9939 118.818 76.7488 118.511 76.44C118.204 76.1312 117.962 75.765 117.797 75.3624C117.633 74.9598 117.55 74.5287 117.554 74.0941ZM100.75 74.0941C100.749 73.2163 101.097 72.3737 101.718 71.7513C102.339 71.1288 103.182 70.7772 104.063 70.7736C104.94 70.7815 105.778 71.1354 106.393 71.7577C107.009 72.38 107.352 73.2201 107.348 74.0941C107.351 74.5273 107.269 74.9569 107.106 75.3584C106.942 75.7598 106.701 76.1251 106.395 76.4334C106.09 76.7416 105.726 76.9867 105.326 77.1547C104.925 77.3226 104.495 77.4101 104.06 77.4121C103.625 77.4113 103.193 77.3249 102.791 77.1578C102.389 76.9908 102.024 76.7464 101.716 76.4386C101.409 76.1308 101.165 75.7657 101 75.364C100.834 74.9624 100.749 74.5321 100.75 74.0978V74.0941ZM83.9609 74.0941C83.9602 73.2184 84.3069 72.378 84.9253 71.756C85.5437 71.134 86.3837 70.7808 87.2623 70.7736C88.1403 70.7798 88.9802 71.1322 89.5985 71.7536C90.2169 72.3751 90.5634 73.2151 90.5623 74.0903C90.565 74.5246 90.4816 74.9552 90.3171 75.3574C90.1525 75.7595 89.9099 76.1254 89.6032 76.434C89.2966 76.7425 88.9318 76.9878 88.5299 77.1556C88.128 77.3234 87.6968 77.4106 87.261 77.4121C86.3832 77.4064 85.5433 77.0547 84.9249 76.4336C84.3065 75.8126 83.9599 74.9728 83.9609 74.0978V74.0941ZM67.1778 74.0941C67.1755 73.2189 67.5212 72.3785 68.1392 71.7568C68.7573 71.1352 69.5973 70.783 70.4754 70.7773C70.9101 70.7795 71.3402 70.867 71.741 71.0348C72.1418 71.2027 72.5055 71.4476 72.8112 71.7557C73.117 72.0637 73.3589 72.4287 73.523 72.83C73.6872 73.2312 73.7704 73.6608 73.7679 74.0941C73.7714 74.5284 73.6886 74.9592 73.5243 75.3615C73.3599 75.7639 73.1173 76.1298 72.8104 76.4382C72.5035 76.7467 72.1384 76.9915 71.7362 77.1587C71.3339 77.3258 70.9024 77.4119 70.4666 77.4121C69.5895 77.4071 68.7504 77.0552 68.1337 76.4337C67.517 75.8122 67.1731 74.972 67.1778 74.0978V74.0941ZM50.3884 74.0941C50.3851 73.2188 50.7303 72.378 51.3483 71.7562C51.9663 71.1343 52.8066 70.7823 53.6847 70.7773C54.5633 70.7846 55.4033 71.1377 56.0217 71.7597C56.6401 72.3817 56.9867 73.2222 56.986 74.0978C56.9882 74.5312 56.9046 74.9608 56.7401 75.362C56.5755 75.7632 56.3333 76.1281 56.0271 76.4359C55.721 76.7438 55.357 76.9884 54.9559 77.1559C54.5548 77.3234 54.1246 77.4104 53.6898 77.4121C53.2541 77.4121 52.8228 77.326 52.4207 77.1589C52.0186 76.9918 51.6538 76.7468 51.3473 76.4383C51.0407 76.1298 50.7986 75.7637 50.6349 75.3614C50.4712 74.959 50.3891 74.5283 50.3934 74.0941H50.3884ZM33.6015 74.0941C33.5994 73.6607 33.6829 73.2312 33.8475 72.8301C34.0121 72.429 34.2544 72.0641 34.5605 71.7564C34.8667 71.4487 35.2307 71.2042 35.6318 71.0368C36.0328 70.8695 36.4631 70.7826 36.8978 70.7811C37.776 70.7867 38.6162 71.1389 39.2344 71.7605C39.8527 72.3821 40.1987 73.2225 40.1967 74.0978C40.1991 74.5315 40.1157 74.9615 39.9511 75.363C39.7865 75.7645 39.544 76.1297 39.2376 76.4376C38.9311 76.7455 38.5667 76.99 38.1652 77.1573C37.7636 77.3245 37.333 77.4111 36.8978 77.4121C36.4623 77.4116 36.0312 77.3252 35.6294 77.1579C35.2275 76.9906 34.8629 76.7456 34.5565 76.4372C34.2501 76.1288 34.0079 75.7629 33.844 75.3608C33.6801 74.9586 33.5977 74.5281 33.6015 74.0941ZM16.8134 74.0941C16.808 73.2207 17.1502 72.3808 17.765 71.7584C18.3798 71.136 19.2171 70.7818 20.0933 70.7736C20.9736 70.7769 21.8167 71.1278 22.4378 71.7495C23.059 72.3712 23.4076 73.2129 23.4072 74.0903C23.4091 74.5254 23.3247 74.9565 23.1589 75.359C22.9931 75.7615 22.7492 76.1274 22.4412 76.4357C22.1331 76.7439 21.7671 76.9886 21.364 77.1555C20.9608 77.3224 20.5286 77.4083 20.0921 77.4083C19.6584 77.4065 19.2294 77.3194 18.8296 77.1518C18.4299 76.9843 18.0672 76.7397 17.7626 76.4321C17.4579 76.1245 17.2173 75.7599 17.0544 75.3593C16.8915 74.9588 16.8095 74.53 16.8134 74.0978V74.0941Z" fill="white"/>
</g>
</g>
<g opacity="0.91">
<g opacity="0.91">
<path opacity="0.91" d="M188.018 77.412C187.14 77.4136 186.299 77.0685 185.676 76.4525C185.06 75.8215 184.712 74.9781 184.704 74.0977C184.704 73.2257 185.051 72.3894 185.67 71.7728C186.288 71.1562 187.128 70.8098 188.002 70.8098C188.877 70.8098 189.716 71.1562 190.335 71.7728C190.954 72.3894 191.301 73.2257 191.301 74.0977C191.3 74.9778 190.957 75.8232 190.344 76.4563C189.724 77.067 188.889 77.4103 188.018 77.412Z" fill="white"/>
</g>
</g>
</g>
<g opacity="0.91">
<g opacity="0.91">
<g opacity="0.91">
<path opacity="0.91" d="M3.30644 95.6754C2.87268 95.6756 2.44329 95.589 2.04372 95.4207C1.64416 95.2525 1.28252 95.006 0.980279 94.6959C0.365477 94.0711 0.0165604 93.2337 0.00634766 92.3586C0.0110037 91.4813 0.362291 90.6411 0.984076 90.0201C1.61078 89.4222 2.44404 89.0872 3.31158 89.0844C4.17912 89.0816 5.01457 89.4112 5.64514 90.0051C5.95463 90.3128 6.20018 90.6784 6.36772 91.0808C6.53525 91.4833 6.62149 91.9148 6.62149 92.3505C6.62149 92.7862 6.53525 93.2177 6.36772 93.6201C6.20018 94.0226 5.95463 94.3882 5.64514 94.6959C5.33971 95.0053 4.97575 95.2511 4.5743 95.4193C4.17284 95.5874 3.74189 95.6745 3.30644 95.6754Z" fill="white"/>
</g>
</g>
<g opacity="0.91">
<g opacity="0.91">
<path opacity="0.91" d="M167.917 92.3588C167.914 91.9249 167.998 91.4948 168.163 91.0931C168.328 90.6915 168.57 90.3261 168.877 90.018C169.183 89.7098 169.548 89.4649 169.949 89.2972C170.351 89.1295 170.781 89.0424 171.217 89.0407C171.652 89.0412 172.083 89.1276 172.485 89.2949C172.887 89.4622 173.252 89.7071 173.558 90.0155C173.865 90.324 174.107 90.6898 174.271 91.092C174.435 91.4941 174.518 91.9247 174.514 92.3588C174.517 93.2341 174.171 94.0747 173.553 94.6965C172.935 95.3182 172.095 95.6703 171.217 95.6756C170.339 95.6684 169.5 95.3157 168.881 94.6945C168.263 94.0732 167.917 93.2337 167.917 92.3588ZM151.13 92.3588C151.126 91.9249 151.209 91.4946 151.373 91.0926C151.537 90.6907 151.779 90.3251 152.086 90.0167C152.392 89.7084 152.757 89.4634 153.158 89.2959C153.56 89.1284 153.991 89.0417 154.426 89.0407C154.862 89.042 155.292 89.1289 155.694 89.2965C156.096 89.4641 156.461 89.7089 156.767 90.0171C157.074 90.3254 157.317 90.6908 157.481 91.0927C157.646 91.4945 157.73 91.9247 157.727 92.3588C157.728 93.2338 157.381 94.0735 156.763 94.6943C156.144 95.3151 155.304 95.6666 154.426 95.6719C153.991 95.6707 153.561 95.584 153.16 95.4168C152.758 95.2496 152.394 95.005 152.088 94.6973C151.782 94.3895 151.539 94.0245 151.375 93.6232C151.211 93.2219 151.127 92.7922 151.13 92.3588ZM134.34 92.3588C134.337 91.9247 134.419 91.4941 134.583 91.092C134.747 90.6898 134.99 90.324 135.296 90.0155C135.603 89.7071 135.967 89.4622 136.369 89.2949C136.771 89.1276 137.202 89.0412 137.638 89.0407C138.073 89.0425 138.504 89.1298 138.905 89.2975C139.307 89.4653 139.671 89.7102 139.978 90.0183C140.284 90.3265 140.527 90.6917 140.691 91.0933C140.856 91.4949 140.94 91.9249 140.938 92.3588C140.94 93.2341 140.594 94.0745 139.975 94.6957C139.357 95.3168 138.516 95.6679 137.638 95.6719C137.203 95.6704 136.773 95.5835 136.372 95.4162C135.97 95.2488 135.606 95.0043 135.3 94.6966C134.994 94.3889 134.751 94.0241 134.587 93.6229C134.422 93.2218 134.338 92.7922 134.34 92.3588ZM117.553 92.3588C117.55 91.9248 117.633 91.4944 117.797 91.0924C117.961 90.6903 118.203 90.3246 118.51 90.0163C118.816 89.7079 119.181 89.463 119.583 89.2956C119.984 89.1281 120.415 89.0415 120.851 89.0407C121.286 89.0422 121.717 89.1292 122.119 89.2969C122.52 89.4645 122.885 89.7095 123.191 90.0177C123.497 90.3259 123.74 90.6913 123.904 91.093C124.069 91.4948 124.152 91.9249 124.15 92.3588C124.15 93.2336 123.804 94.0731 123.186 94.6944C122.568 95.3157 121.729 95.6684 120.851 95.6756C119.973 95.6707 119.132 95.3187 118.514 94.6968C117.896 94.075 117.55 93.2342 117.553 92.3588ZM100.75 92.3588C100.748 91.9252 100.831 91.4954 100.995 91.0939C101.16 90.6924 101.402 90.3272 101.708 90.019C102.014 89.7108 102.378 89.4658 102.779 89.298C103.18 89.1301 103.61 89.0427 104.045 89.0407C104.482 89.0407 104.914 89.1266 105.317 89.2935C105.72 89.4604 106.087 89.705 106.395 90.0133C106.703 90.3216 106.947 90.6875 107.113 91.09C107.279 91.4925 107.363 91.9236 107.362 92.3588C107.362 93.2357 107.013 94.0769 106.393 94.6984C105.772 95.32 104.93 95.6713 104.05 95.6756C103.172 95.6697 102.332 95.3174 101.714 94.6959C101.095 94.0744 100.749 93.2341 100.75 92.3588ZM83.9645 92.3588C83.9622 91.9249 84.0457 91.4948 84.2102 91.0931C84.3746 90.6914 84.6169 90.326 84.9231 90.0176C85.2294 89.7092 85.5935 89.464 85.9949 89.296C86.3962 89.1279 86.8268 89.0403 87.2621 89.0382C87.6976 89.039 88.1286 89.1256 88.5303 89.293C88.9321 89.4605 89.2967 89.7054 89.6031 90.0138C89.9096 90.3221 90.1518 90.6878 90.316 91.0898C90.4802 91.4919 90.563 91.9223 90.5597 92.3563C90.5627 93.2323 90.2167 94.0737 89.5976 94.6957C88.9786 95.3176 88.1372 95.6691 87.2583 95.6731C86.3821 95.6655 85.5444 95.3133 84.9275 94.693C84.3106 94.0727 83.9645 93.2347 83.9645 92.3613V92.3588ZM67.1777 92.3588C67.1753 91.9254 67.2587 91.4957 67.423 91.0944C67.5872 90.6931 67.8292 90.3279 68.1351 90.0198C68.4409 89.7117 68.8047 89.4666 69.2056 89.2986C69.6064 89.1307 70.0366 89.043 70.4714 89.0407C70.9068 89.0419 71.3375 89.1287 71.7391 89.2963C72.1406 89.4638 72.505 89.7088 72.8113 90.0171C73.1176 90.3254 73.3597 90.691 73.5239 91.0928C73.688 91.4947 73.7709 91.9249 73.7677 92.3588C73.7711 93.2343 73.4257 94.0753 72.8074 94.6972C72.1891 95.3191 71.3485 95.671 70.4702 95.6756C69.593 95.6687 68.7543 95.3159 68.1373 94.6944C67.5203 94.0728 67.1753 93.2331 67.1777 92.3588ZM50.3882 92.3588C50.3848 91.9244 50.4676 91.4936 50.6319 91.0913C50.7962 90.689 51.0388 90.323 51.3457 90.0146C51.6526 89.7061 52.0177 89.4613 52.42 89.2941C52.8223 89.127 53.2538 89.0409 53.6896 89.0407C54.1246 89.0428 54.5549 89.1304 54.956 89.2983C55.3571 89.4662 55.7211 89.7112 56.0272 90.0193C56.3333 90.3274 56.5755 90.6926 56.74 91.094C56.9044 91.4954 56.988 91.9252 56.9859 92.3588C56.9865 93.2341 56.6398 94.0742 56.0213 94.6956C55.4028 95.317 54.5627 95.6693 53.6846 95.6756C52.8073 95.6693 51.9683 95.3167 51.3513 94.695C50.7344 94.0733 50.3899 93.2332 50.3933 92.3588H50.3882ZM33.6013 92.3588C33.597 91.9243 33.6792 91.4932 33.8432 91.0906C34.0071 90.688 34.2496 90.3218 34.5565 90.0132C34.8634 89.7046 35.2287 89.4597 35.6312 89.2928C36.0337 89.1259 36.4655 89.0402 36.9014 89.0407C37.7798 89.0454 38.6203 89.3975 39.2382 90.0197C39.8561 90.642 40.2008 91.4833 40.1965 92.3588C40.1978 93.2339 39.8516 94.074 39.2335 94.6955C38.6154 95.317 37.7756 95.6693 36.8977 95.6756C36.4627 95.6738 36.0322 95.5866 35.6311 95.4189C35.2299 95.2512 34.8659 95.0063 34.5597 94.6982C34.2536 94.3902 34.0114 94.025 33.8469 93.6236C33.6825 93.2222 33.599 92.7924 33.6013 92.3588ZM16.8094 92.3588C16.8061 91.9247 16.8889 91.4942 17.0532 91.0921C17.2174 90.69 17.4598 90.3242 17.7664 90.0158C18.073 89.7075 18.4377 89.4625 18.8396 89.2952C19.2415 89.1278 19.6727 89.0414 20.1082 89.0407C20.5435 89.0424 20.9741 89.1295 21.3755 89.2972C21.7769 89.465 22.1411 89.7099 22.4474 90.0181C22.7537 90.3263 22.996 90.6917 23.1605 91.0933C23.3249 91.495 23.4083 91.925 23.4058 92.3588C23.4071 93.2337 23.0611 94.0736 22.4433 94.695C21.8254 95.3165 20.986 95.669 20.1082 95.6756C19.2299 95.6707 18.3893 95.3187 17.7709 94.6969C17.1525 94.0751 16.8067 93.2343 16.8094 92.3588Z" fill="white"/>
</g>
</g>
<g opacity="0.91">
<g opacity="0.91">
<path opacity="0.91" d="M188.001 95.6754C187.567 95.6743 187.138 95.5871 186.739 95.4189C186.339 95.2507 185.977 95.005 185.674 94.6959C185.215 94.2364 184.904 93.6518 184.778 93.016C184.652 92.3801 184.719 91.7215 184.968 91.1231C185.218 90.5247 185.64 90.0134 186.181 89.6538C186.722 89.2941 187.357 89.1022 188.007 89.1022C188.658 89.1022 189.293 89.2941 189.834 89.6538C190.375 90.0134 190.797 90.5247 191.046 91.1231C191.296 91.7215 191.362 92.3801 191.237 93.016C191.111 93.6518 190.8 94.2364 190.341 94.6959C190.036 95.0065 189.672 95.2531 189.27 95.4213C188.869 95.5895 188.437 95.6759 188.001 95.6754Z" fill="white"/>
</g>
</g>
</g>
<g opacity="0.91">
<g opacity="0.91">
<g opacity="0.91">
<path opacity="0.91" d="M3.3238 113.377C2.66633 113.372 2.02498 113.173 1.48019 112.806C0.935389 112.44 0.511379 111.921 0.261348 111.314C0.0113174 110.708 -0.053611 110.042 0.0746929 109.399C0.202997 108.757 0.518825 108.166 0.98258 107.701C1.61421 107.109 2.4486 106.78 3.31564 106.78C4.18267 106.78 5.01707 107.109 5.64869 107.701C6.11093 108.165 6.42592 108.754 6.55443 109.395C6.68295 110.036 6.61927 110.701 6.37134 111.306C6.12342 111.912 5.70224 112.431 5.16029 112.799C4.61834 113.167 3.97962 113.368 3.3238 113.377Z" fill="white"/>
</g>
</g>
<g opacity="0.91">
<g opacity="0.91">
<path opacity="0.91" d="M167.916 110.056C167.913 109.18 168.258 108.338 168.877 107.716C169.496 107.094 170.338 106.742 171.217 106.738C171.652 106.739 172.084 106.825 172.486 106.993C172.888 107.16 173.253 107.406 173.559 107.715C173.866 108.023 174.108 108.39 174.272 108.792C174.436 109.195 174.518 109.625 174.514 110.06C174.516 110.935 174.17 111.775 173.552 112.397C172.934 113.018 172.094 113.371 171.217 113.377C170.338 113.369 169.499 113.015 168.881 112.393C168.263 111.771 167.916 110.931 167.916 110.056ZM151.13 110.056C151.126 109.181 151.471 108.339 152.089 107.717C152.707 107.095 153.548 106.743 154.426 106.738C154.861 106.74 155.292 106.827 155.694 106.994C156.096 107.162 156.46 107.407 156.767 107.715C157.073 108.023 157.316 108.388 157.481 108.79C157.646 109.192 157.729 109.622 157.727 110.056C157.728 110.931 157.381 111.771 156.762 112.392C156.144 113.014 155.304 113.366 154.426 113.373C153.548 113.367 152.708 113.015 152.091 112.393C151.473 111.771 151.127 110.931 151.13 110.056ZM134.34 110.056C134.336 109.622 134.419 109.191 134.583 108.789C134.747 108.387 134.989 108.021 135.296 107.712C135.602 107.404 135.967 107.159 136.369 106.992C136.771 106.825 137.202 106.738 137.638 106.738C138.073 106.74 138.504 106.827 138.905 106.995C139.307 107.163 139.671 107.408 139.977 107.716C140.284 108.024 140.526 108.389 140.691 108.791C140.856 109.192 140.94 109.622 140.938 110.056C140.941 110.932 140.595 111.773 139.976 112.395C139.358 113.017 138.516 113.369 137.638 113.373C136.759 113.369 135.918 113.017 135.3 112.395C134.682 111.773 134.337 110.932 134.34 110.056ZM117.553 110.056C117.55 109.622 117.633 109.192 117.797 108.79C117.961 108.388 118.203 108.022 118.51 107.714C118.816 107.405 119.181 107.16 119.583 106.993C119.984 106.825 120.415 106.739 120.851 106.738C121.73 106.743 122.572 107.095 123.19 107.718C123.809 108.341 124.154 109.183 124.15 110.06C124.149 110.934 123.803 111.774 123.185 112.395C122.567 113.016 121.728 113.369 120.851 113.377C119.972 113.372 119.131 113.019 118.513 112.396C117.894 111.774 117.549 110.932 117.553 110.056ZM100.75 110.056C100.748 109.622 100.831 109.193 100.995 108.791C101.159 108.39 101.402 108.024 101.708 107.716C102.014 107.408 102.378 107.163 102.779 106.995C103.18 106.827 103.61 106.74 104.045 106.738C104.481 106.738 104.912 106.824 105.315 106.991C105.717 107.158 106.082 107.403 106.388 107.711C106.695 108.02 106.937 108.386 107.101 108.788C107.265 109.191 107.347 109.622 107.343 110.056C107.346 110.49 107.264 110.92 107.099 111.322C106.935 111.724 106.693 112.09 106.387 112.398C106.081 112.706 105.716 112.951 105.314 113.118C104.913 113.286 104.482 113.372 104.046 113.373C103.168 113.368 102.328 113.015 101.71 112.394C101.092 111.772 100.747 110.931 100.75 110.056ZM83.9657 110.056C83.963 109.622 84.0463 109.192 84.2106 108.791C84.3749 108.389 84.6171 108.024 84.9233 107.715C85.2295 107.407 85.5937 107.162 85.995 106.995C86.3963 106.827 86.8268 106.74 87.262 106.738C87.6975 106.739 88.1285 106.825 88.5303 106.993C88.932 107.16 89.2966 107.405 89.603 107.714C89.9095 108.022 90.1518 108.388 90.3159 108.79C90.4801 109.192 90.5629 109.622 90.5596 110.056C90.5617 110.49 90.4781 110.92 90.3135 111.321C90.149 111.722 89.9066 112.087 89.6004 112.396C89.2941 112.704 88.93 112.948 88.5288 113.116C88.1275 113.284 87.6971 113.371 87.262 113.373C86.3841 113.367 85.5442 113.015 84.9263 112.393C84.3085 111.772 83.963 110.931 83.9657 110.056ZM67.1776 110.056C67.1746 109.623 67.2575 109.193 67.4216 108.791C67.5857 108.39 67.8277 108.025 68.1337 107.717C68.4398 107.409 68.8038 107.164 69.205 106.997C69.6061 106.83 70.0365 106.743 70.4714 106.742C70.9068 106.741 71.3381 106.827 71.7401 106.994C72.1422 107.16 72.507 107.405 72.8136 107.713C73.1202 108.021 73.3624 108.387 73.5261 108.789C73.6899 109.192 73.772 109.622 73.7677 110.056C73.7703 110.49 73.6871 110.919 73.5229 111.321C73.3586 111.722 73.1165 112.088 72.8104 112.396C72.5044 112.704 72.1403 112.949 71.7392 113.116C71.338 113.284 70.9076 113.371 70.4726 113.373C69.5952 113.366 68.7562 113.013 68.1388 112.392C67.5214 111.77 67.1759 110.931 67.1776 110.056ZM50.3907 110.056C50.3869 109.622 50.4692 109.192 50.633 108.79C50.7967 108.388 51.0386 108.022 51.3447 107.714C51.6509 107.405 52.0153 107.16 52.4168 106.993C52.8184 106.825 53.2492 106.739 53.6845 106.738C54.1198 106.74 54.5505 106.827 54.9521 106.995C55.3536 107.163 55.718 107.407 56.0246 107.716C56.3312 108.024 56.5738 108.389 56.7387 108.791C56.9037 109.192 56.9876 109.622 56.9858 110.056C56.9868 110.931 56.6409 111.77 56.0234 112.391C55.4059 113.013 54.5669 113.366 53.6895 113.373C53.2544 113.371 52.8238 113.284 52.4225 113.117C52.0212 112.949 51.6571 112.704 51.3508 112.396C51.0446 112.088 50.8024 111.723 50.6381 111.321C50.4738 110.92 50.3905 110.49 50.3932 110.056H50.3907ZM33.6013 110.056C33.5971 109.622 33.6793 109.191 33.8431 108.789C34.0069 108.387 34.249 108.021 34.5555 107.712C34.862 107.404 35.2267 107.159 35.6287 106.992C36.0307 106.824 36.462 106.738 36.8976 106.738C37.3329 106.74 37.7637 106.827 38.1652 106.994C38.5667 107.162 38.9311 107.407 39.2376 107.715C39.544 108.023 39.7864 108.389 39.9509 108.79C40.1155 109.192 40.1989 109.622 40.1964 110.056C40.1978 110.931 39.8516 111.771 39.2334 112.393C38.6153 113.014 37.7756 113.367 36.8976 113.373C36.4625 113.371 36.0319 113.284 35.6306 113.117C35.2293 112.949 34.8651 112.704 34.5589 112.396C34.2527 112.088 34.0105 111.723 33.8462 111.321C33.6819 110.92 33.5986 110.49 33.6013 110.056ZM16.8131 110.056C16.8093 109.622 16.8917 109.192 17.0555 108.79C17.2194 108.388 17.4614 108.022 17.7676 107.713C18.0739 107.405 18.4384 107.16 18.8401 106.993C19.2418 106.825 19.6728 106.739 20.1082 106.738C20.5433 106.74 20.9739 106.827 21.3752 106.995C21.7765 107.163 22.1407 107.408 22.447 107.716C22.7532 108.024 22.9955 108.389 23.16 108.791C23.3246 109.192 23.408 109.622 23.4057 110.056C23.4081 110.931 23.0627 111.771 22.4452 112.392C21.8277 113.014 20.9883 113.367 20.1107 113.373C19.6756 113.371 19.245 113.284 18.8437 113.116C18.4424 112.949 18.0782 112.704 17.772 112.396C17.4657 112.088 17.2234 111.723 17.0588 111.321C16.8943 110.92 16.8108 110.49 16.8131 110.056Z" fill="white"/>
</g>
</g>
<g opacity="0.91">
<g opacity="0.91">
<path opacity="0.91" d="M188.001 113.377C187.124 113.365 186.286 113.01 185.669 112.389C185.051 111.769 184.702 110.931 184.698 110.056C184.71 109.176 185.059 108.333 185.674 107.701C186.136 107.238 186.726 106.922 187.369 106.795C188.012 106.668 188.679 106.735 189.283 106.988C189.888 107.241 190.402 107.668 190.762 108.215C191.121 108.762 191.308 109.403 191.299 110.056C191.301 110.49 191.218 110.92 191.054 111.322C190.889 111.724 190.647 112.089 190.341 112.398C190.034 112.706 189.67 112.951 189.269 113.119C188.867 113.287 188.437 113.375 188.001 113.377Z" fill="white"/>
</g>
</g>
</g>
<g opacity="0.91">
<g opacity="0.91">
<g opacity="0.91">
<path opacity="0.91" d="M167.917 128.3C167.916 127.424 168.263 126.584 168.881 125.962C169.499 125.341 170.339 124.987 171.217 124.979C171.652 124.981 172.083 125.069 172.484 125.237C172.886 125.405 173.25 125.65 173.556 125.958C173.862 126.267 174.105 126.632 174.269 127.034C174.433 127.436 174.517 127.866 174.514 128.3C174.517 128.734 174.434 129.164 174.27 129.565C174.105 129.967 173.863 130.333 173.557 130.641C173.25 130.949 172.886 131.194 172.484 131.361C172.083 131.529 171.652 131.615 171.217 131.617C170.338 131.612 169.497 131.26 168.878 130.639C168.26 130.017 167.914 129.176 167.917 128.3ZM151.13 128.3C151.128 127.425 151.474 126.586 152.092 125.965C152.709 125.344 153.549 124.992 154.426 124.987C155.304 124.992 156.144 125.344 156.762 125.965C157.381 126.585 157.728 127.425 157.727 128.3C157.729 128.733 157.645 129.163 157.48 129.565C157.315 129.966 157.073 130.331 156.766 130.638C156.459 130.946 156.095 131.191 155.693 131.358C155.292 131.525 154.861 131.612 154.426 131.613C153.991 131.611 153.561 131.524 153.16 131.356C152.76 131.189 152.396 130.944 152.09 130.637C151.783 130.329 151.541 129.964 151.376 129.563C151.212 129.162 151.128 128.733 151.13 128.3ZM134.34 128.3C134.338 127.866 134.422 127.436 134.587 127.035C134.751 126.634 134.994 126.269 135.3 125.961C135.606 125.653 135.97 125.408 136.371 125.24C136.773 125.072 137.203 124.985 137.638 124.983C138.517 124.987 139.358 125.339 139.977 125.961C140.596 126.582 140.941 127.424 140.938 128.3C140.94 128.733 140.856 129.163 140.692 129.565C140.527 129.966 140.284 130.331 139.978 130.639C139.671 130.947 139.307 131.191 138.905 131.358C138.504 131.525 138.073 131.612 137.638 131.613C137.203 131.613 136.772 131.527 136.37 131.36C135.968 131.194 135.603 130.949 135.297 130.641C134.99 130.333 134.748 129.968 134.583 129.566C134.419 129.164 134.337 128.734 134.34 128.3ZM117.554 128.3C117.551 127.866 117.635 127.437 117.799 127.035C117.963 126.634 118.205 126.269 118.511 125.961C118.817 125.653 119.181 125.408 119.582 125.24C119.983 125.072 120.414 124.985 120.849 124.983C121.727 124.988 122.567 125.34 123.185 125.962C123.803 126.584 124.149 127.424 124.146 128.3C124.149 128.733 124.066 129.163 123.901 129.564C123.737 129.965 123.495 130.33 123.189 130.638C122.883 130.946 122.519 131.19 122.117 131.358C121.716 131.525 121.286 131.612 120.851 131.613C120.416 131.613 119.985 131.527 119.583 131.36C119.182 131.193 118.817 130.948 118.51 130.64C118.204 130.332 117.961 129.967 117.797 129.565C117.633 129.164 117.55 128.734 117.554 128.3ZM100.75 128.3C100.748 127.424 101.093 126.582 101.712 125.96C102.331 125.338 103.171 124.985 104.05 124.979C104.485 124.981 104.916 125.068 105.317 125.236C105.718 125.404 106.083 125.649 106.389 125.957C106.695 126.265 106.937 126.63 107.102 127.031C107.266 127.433 107.35 127.862 107.348 128.296C107.352 128.73 107.269 129.161 107.105 129.564C106.94 129.966 106.697 130.332 106.39 130.641C106.083 130.949 105.718 131.194 105.315 131.36C104.913 131.527 104.481 131.613 104.045 131.613C103.611 131.611 103.181 131.524 102.78 131.356C102.379 131.189 102.015 130.944 101.709 130.637C101.403 130.329 101.161 129.964 100.997 129.563C100.832 129.162 100.748 128.733 100.75 128.3ZM83.9647 128.3C83.9634 127.426 84.3088 126.586 84.9259 125.965C85.5429 125.344 86.3814 124.991 87.2585 124.983C88.1379 124.987 88.9797 125.339 89.5988 125.962C90.2178 126.585 90.5635 127.427 90.5598 128.304C90.5626 128.737 90.4795 129.167 90.3151 129.569C90.1507 129.97 89.9083 130.335 89.6019 130.643C89.2955 130.951 88.931 131.195 88.5295 131.362C88.128 131.53 87.6973 131.616 87.2623 131.617C86.8272 131.615 86.3968 131.527 85.9955 131.36C85.5943 131.192 85.2302 130.947 84.9239 130.639C84.6177 130.331 84.3753 129.966 84.2107 129.565C84.0462 129.163 83.9626 128.733 83.9647 128.3ZM67.1766 128.3C67.1732 127.424 67.5186 126.582 68.1371 125.96C68.7555 125.337 69.5965 124.985 70.4754 124.979C71.3535 124.985 72.1934 125.338 72.8107 125.961C73.428 126.583 73.7723 127.424 73.7679 128.3C73.7711 128.734 73.688 129.165 73.5235 129.567C73.3591 129.969 73.1164 130.334 72.8096 130.643C72.5027 130.951 72.1378 131.196 71.7357 131.363C71.3336 131.53 70.9022 131.616 70.4666 131.617C69.5892 131.611 68.7499 131.258 68.1331 130.637C67.5162 130.015 67.1722 129.174 67.1766 128.3ZM50.3884 128.3C50.388 127.425 50.7342 126.586 51.3516 125.965C51.969 125.344 52.8075 124.991 53.6847 124.983C54.5632 124.991 55.403 125.344 56.0213 125.966C56.6397 126.588 56.9864 127.428 56.986 128.304C56.9879 128.737 56.904 129.166 56.7394 129.567C56.5747 129.968 56.3324 130.333 56.0263 130.64C55.7202 130.948 55.3563 131.193 54.9554 131.36C54.5545 131.528 54.1245 131.615 53.6898 131.617C53.2548 131.615 52.8245 131.527 52.4234 131.359C52.0223 131.192 51.6583 130.947 51.3522 130.639C51.0461 130.331 50.8039 129.966 50.6394 129.564C50.4749 129.163 50.3913 128.733 50.3934 128.3H50.3884ZM33.6015 128.3C33.5992 127.866 33.6827 127.437 33.8472 127.036C34.0117 126.634 34.254 126.269 34.5601 125.962C34.8663 125.654 35.2304 125.409 35.6316 125.242C36.0327 125.075 36.463 124.988 36.8978 124.987C37.776 124.992 38.6162 125.345 39.2344 125.966C39.8527 126.588 40.1987 127.428 40.1967 128.304C40.1988 128.737 40.1152 129.166 39.9508 129.567C39.7863 129.968 39.5441 130.333 39.2381 130.641C38.9321 130.948 38.5682 131.193 38.1673 131.36C37.7664 131.528 37.3363 131.615 36.9016 131.617C36.4656 131.618 36.0336 131.533 35.6309 131.366C35.2282 131.199 34.8627 130.955 34.5556 130.646C34.2486 130.337 34.0061 129.971 33.8423 129.568C33.6785 129.166 33.5967 128.734 33.6015 128.3ZM16.8134 128.3C16.8109 127.866 16.8943 127.436 17.0587 127.035C17.2232 126.633 17.4655 126.268 17.7718 125.96C18.0781 125.651 18.4424 125.407 18.8438 125.239C19.2452 125.071 19.6758 124.984 20.111 124.983C20.9886 124.989 21.828 125.342 22.4455 125.963C23.063 126.585 23.4083 127.425 23.406 128.3C23.4081 128.733 23.3245 129.163 23.1599 129.564C22.9952 129.965 22.7528 130.33 22.4465 130.638C22.1403 130.946 21.7761 131.19 21.3749 131.357C20.9737 131.525 20.5433 131.611 20.1084 131.613C19.6732 131.613 19.2423 131.527 18.8406 131.36C18.4388 131.194 18.0742 130.949 17.7678 130.641C17.4614 130.333 17.2193 129.967 17.0555 129.566C16.8917 129.164 16.8094 128.734 16.8134 128.3Z" fill="white"/>
</g>
</g>
<g opacity="0.91">
<g opacity="0.91">
<path opacity="0.91" d="M188.001 131.617C187.129 131.614 186.293 131.27 185.674 130.658C185.057 130.026 184.708 129.181 184.7 128.3C184.7 127.425 185.048 126.587 185.668 125.969C186.289 125.35 187.13 125.003 188.007 125.003C188.885 125.003 189.726 125.35 190.346 125.969C190.966 126.587 191.315 127.425 191.315 128.3C191.305 129.18 190.958 130.022 190.343 130.655C189.72 131.27 188.878 131.615 188.001 131.617Z" fill="white"/>
</g>
</g>
</g>
</g>
<g opacity="0.91">
<g opacity="0.91">
<g opacity="0.91">
<g opacity="0.91">
<path opacity="0.91" d="M3.30811 151.257C2.87397 151.256 2.44435 151.169 2.04463 151C1.64491 150.831 1.28315 150.584 0.98069 150.274C0.369128 149.648 0.0268555 148.81 0.0268555 147.937C0.0268555 147.064 0.369128 146.225 0.98069 145.6C1.60844 145.002 2.44246 144.666 3.31099 144.663C4.17952 144.659 5.01645 144.987 5.64935 145.58C6.25817 146.215 6.60109 147.058 6.6082 147.936C6.60536 148.81 6.26095 149.649 5.64808 150.274C5.34419 150.586 4.98039 150.833 4.57839 151.002C4.17638 151.171 3.74439 151.258 3.30811 151.257Z" fill="white"/>
</g>
</g>
<g opacity="0.91">
<g opacity="0.91">
<path opacity="0.91" d="M167.917 147.938C167.915 147.504 167.999 147.074 168.163 146.672C168.328 146.27 168.57 145.904 168.877 145.596C169.183 145.287 169.548 145.042 169.949 144.874C170.351 144.706 170.782 144.619 171.218 144.617C171.653 144.617 172.084 144.704 172.486 144.872C172.888 145.039 173.253 145.284 173.559 145.593C173.865 145.901 174.108 146.267 174.272 146.669C174.436 147.071 174.519 147.502 174.515 147.936C174.519 148.812 174.174 149.654 173.556 150.276C172.937 150.899 172.096 151.252 171.218 151.256C170.339 151.251 169.499 150.898 168.88 150.276C168.262 149.655 167.916 148.814 167.917 147.938ZM151.131 147.938C151.128 147.505 151.212 147.075 151.376 146.673C151.541 146.272 151.783 145.907 152.089 145.599C152.395 145.29 152.759 145.045 153.16 144.878C153.561 144.71 153.992 144.622 154.427 144.62C154.863 144.621 155.294 144.707 155.696 144.874C156.098 145.041 156.464 145.286 156.77 145.595C157.077 145.903 157.32 146.269 157.484 146.671C157.649 147.073 157.732 147.504 157.728 147.938C157.73 148.814 157.383 149.655 156.765 150.277C156.146 150.899 155.306 151.251 154.427 151.256C153.549 151.25 152.71 150.897 152.092 150.275C151.475 149.653 151.129 148.813 151.131 147.938ZM134.34 147.938C134.336 147.504 134.419 147.074 134.583 146.671C134.747 146.269 134.99 145.903 135.296 145.595C135.603 145.286 135.968 145.041 136.37 144.874C136.772 144.706 137.203 144.62 137.639 144.619C138.518 144.623 139.36 144.975 139.979 145.598C140.599 146.22 140.945 147.062 140.943 147.938C140.942 148.814 140.595 149.654 139.976 150.276C139.358 150.898 138.517 151.251 137.639 151.259C137.203 151.257 136.773 151.169 136.371 151.001C135.97 150.832 135.605 150.587 135.299 150.278C134.993 149.97 134.751 149.604 134.586 149.202C134.422 148.8 134.339 148.37 134.341 147.936L134.34 147.938ZM117.559 147.938C117.555 147.504 117.637 147.074 117.8 146.672C117.963 146.269 118.205 145.903 118.511 145.595C118.818 145.286 119.182 145.041 119.584 144.873C119.985 144.706 120.416 144.62 120.852 144.619C121.287 144.621 121.718 144.709 122.12 144.877C122.521 145.045 122.885 145.29 123.192 145.599C123.498 145.907 123.74 146.273 123.905 146.675C124.07 147.077 124.153 147.507 124.151 147.941C124.153 148.815 123.808 149.655 123.191 150.276C122.573 150.897 121.734 151.249 120.857 151.254C120.421 151.254 119.99 151.167 119.588 151C119.186 150.833 118.821 150.588 118.515 150.28C118.208 149.971 117.966 149.605 117.802 149.203C117.638 148.801 117.556 148.37 117.559 147.936V147.938ZM100.767 147.938C100.763 147.506 100.845 147.076 101.008 146.675C101.171 146.274 101.411 145.909 101.716 145.6C102.021 145.292 102.384 145.046 102.784 144.878C103.184 144.71 103.613 144.622 104.047 144.619C104.484 144.62 104.916 144.706 105.32 144.873C105.723 145.041 106.089 145.286 106.397 145.594C106.705 145.903 106.949 146.269 107.114 146.672C107.28 147.074 107.364 147.506 107.363 147.941C107.363 148.819 107.014 149.661 106.392 150.283C105.771 150.905 104.927 151.256 104.046 151.259C103.612 151.255 103.183 151.167 102.783 150.998C102.383 150.829 102.021 150.583 101.716 150.274C101.412 149.966 101.171 149.6 101.009 149.199C100.846 148.798 100.764 148.369 100.767 147.936V147.938ZM83.9655 147.938C83.9628 147.505 84.0459 147.075 84.2101 146.673C84.3742 146.272 84.6161 145.907 84.9221 145.598C85.228 145.29 85.5918 145.045 85.9929 144.877C86.3939 144.709 86.8242 144.621 87.2592 144.619C87.6952 144.62 88.1268 144.706 88.5291 144.874C88.9314 145.041 89.2965 145.287 89.6033 145.595C89.9102 145.904 90.1527 146.27 90.317 146.673C90.4812 147.075 90.564 147.506 90.5606 147.941C90.5624 148.374 90.4785 148.804 90.3138 149.205C90.149 149.606 89.9066 149.971 89.6004 150.278C89.2942 150.586 88.9301 150.831 88.5291 150.998C88.128 151.165 87.6978 151.252 87.263 151.254C86.3844 151.249 85.5436 150.897 84.9253 150.275C84.307 149.653 83.9618 148.812 83.9655 147.936V147.938ZM67.1773 147.938C67.1748 147.504 67.2582 147.074 67.4227 146.672C67.5872 146.27 67.8295 145.904 68.1359 145.596C68.4423 145.287 68.8066 145.042 69.2082 144.874C69.6097 144.706 70.0406 144.619 70.4761 144.617C70.9116 144.618 71.3426 144.705 71.7442 144.872C72.1459 145.04 72.5104 145.285 72.8169 145.593C73.1233 145.902 73.3655 146.267 73.5297 146.669C73.6939 147.071 73.7768 147.502 73.7737 147.936C73.777 148.812 73.4312 149.654 72.8122 150.277C72.1933 150.9 71.3517 151.252 70.4724 151.256C69.5952 151.248 68.7567 150.895 68.1396 150.273C67.5225 149.652 67.1766 148.813 67.1773 147.938ZM50.3892 147.938C50.3855 147.063 50.7305 146.222 51.3485 145.599C51.9665 144.977 52.807 144.624 53.6855 144.619C54.565 144.624 55.4065 144.977 56.0254 145.599C56.6444 146.222 56.9901 147.064 56.9868 147.941C56.9878 148.816 56.6419 149.655 56.0244 150.277C55.407 150.898 54.568 151.251 53.6905 151.259C52.8124 151.25 51.9733 150.896 51.3559 150.274C50.7385 149.652 50.3928 148.811 50.3942 147.936L50.3892 147.938ZM33.6023 147.938C33.5986 147.505 33.6812 147.074 33.8452 146.672C34.0092 146.27 34.2513 145.905 34.5578 145.596C34.8642 145.288 35.2288 145.044 35.6305 144.876C36.0323 144.709 36.4633 144.623 36.8986 144.623C37.3339 144.624 37.7646 144.712 38.166 144.879C38.5675 145.047 38.9318 145.292 39.2382 145.6C39.5446 145.908 39.787 146.274 39.9516 146.675C40.1162 147.077 40.1997 147.507 40.1974 147.941C40.1991 148.816 39.8535 149.655 39.2362 150.277C38.6189 150.899 37.7799 151.252 36.9023 151.259C36.0227 151.254 35.1809 150.902 34.562 150.279C33.9432 149.655 33.5979 148.813 33.6023 147.936V147.938ZM16.8141 147.938C16.81 147.504 16.8923 147.073 17.0562 146.67C17.2202 146.267 17.4626 145.901 17.7694 145.592C18.0763 145.283 18.4415 145.038 18.8439 144.87C19.2464 144.703 19.6781 144.617 20.1142 144.617C20.5494 144.619 20.9799 144.706 21.3812 144.874C21.7824 145.042 22.1465 145.287 22.4526 145.595C22.7588 145.904 23.0009 146.269 23.1653 146.671C23.3297 147.072 23.413 147.502 23.4105 147.936C23.4112 148.812 23.0645 149.652 22.4461 150.274C21.8277 150.896 20.9877 151.249 20.1092 151.256C19.6742 151.254 19.2439 151.167 18.8429 150.999C18.4419 150.831 18.078 150.586 17.772 150.278C17.466 149.97 17.2239 149.604 17.0596 149.203C16.8952 148.802 16.8118 148.372 16.8141 147.938Z" fill="white"/>
</g>
</g>
<g opacity="0.91">
<g opacity="0.91">
<path opacity="0.91" d="M188.002 151.256C187.567 151.256 187.138 151.169 186.738 151C186.338 150.831 185.976 150.584 185.674 150.273C185.056 149.654 184.709 148.817 184.709 147.944C184.708 147.071 185.054 146.234 185.671 145.614C186.287 144.994 187.125 144.643 188.001 144.636C188.877 144.63 189.72 144.969 190.345 145.58C190.957 146.214 191.303 147.057 191.313 147.936C191.307 148.812 190.959 149.65 190.342 150.273C190.038 150.585 189.674 150.833 189.272 151.002C188.87 151.171 188.438 151.258 188.002 151.256Z" fill="white"/>
</g>
</g>
</g>
<g opacity="0.91">
<g opacity="0.91">
<g opacity="0.91">
<path opacity="0.91" d="M3.30824 169.512C2.43369 169.506 1.59712 169.155 0.980828 168.537C0.367692 167.908 0.0246582 167.066 0.0246582 166.19C0.0246582 165.313 0.367692 164.472 0.980828 163.843C1.44264 163.38 2.03274 163.065 2.67549 162.938C3.31823 162.811 3.98438 162.878 4.58852 163.131C5.19266 163.384 5.70727 163.811 6.06645 164.357C6.42563 164.903 6.61299 165.544 6.60452 166.197C6.60281 167.071 6.25984 167.91 5.6482 168.537C5.02727 169.156 4.1866 169.506 3.30824 169.512Z" fill="white"/>
</g>
</g>
<g opacity="0.91">
<g opacity="0.91">
<path opacity="0.91" d="M167.915 166.197C167.913 165.763 167.997 165.333 168.162 164.931C168.327 164.53 168.57 164.165 168.877 163.857C169.184 163.549 169.548 163.304 169.95 163.137C170.352 162.969 170.782 162.883 171.218 162.881C171.653 162.882 172.084 162.968 172.486 163.135C172.888 163.302 173.253 163.547 173.559 163.855C173.866 164.163 174.108 164.529 174.272 164.931C174.436 165.332 174.519 165.763 174.515 166.197C174.517 166.631 174.434 167.06 174.269 167.462C174.105 167.864 173.862 168.229 173.556 168.537C173.25 168.845 172.886 169.09 172.485 169.258C172.083 169.426 171.653 169.514 171.218 169.516C170.339 169.508 169.5 169.155 168.881 168.534C168.263 167.912 167.915 167.072 167.915 166.197ZM151.137 166.197C151.134 165.764 151.217 165.334 151.381 164.933C151.545 164.532 151.786 164.167 152.092 163.859C152.397 163.551 152.761 163.306 153.162 163.138C153.563 162.97 153.993 162.883 154.427 162.881C154.862 162.883 155.293 162.97 155.695 163.137C156.096 163.305 156.46 163.549 156.767 163.857C157.074 164.165 157.316 164.53 157.481 164.932C157.646 165.333 157.73 165.763 157.728 166.197C157.728 167.072 157.381 167.911 156.763 168.532C156.145 169.153 155.305 169.506 154.427 169.512C153.993 169.51 153.563 169.422 153.162 169.255C152.762 169.087 152.398 168.842 152.093 168.534C151.787 168.226 151.546 167.861 151.382 167.46C151.218 167.059 151.135 166.63 151.137 166.197ZM134.341 166.197C134.338 165.763 134.421 165.333 134.585 164.931C134.749 164.529 134.992 164.163 135.298 163.855C135.605 163.547 135.969 163.302 136.371 163.135C136.773 162.968 137.204 162.882 137.639 162.881C138.074 162.883 138.505 162.969 138.906 163.137C139.308 163.304 139.672 163.549 139.979 163.857C140.285 164.165 140.528 164.53 140.693 164.932C140.857 165.333 140.941 165.763 140.939 166.197C140.941 167.072 140.595 167.913 139.976 168.535C139.358 169.157 138.517 169.51 137.639 169.516C136.76 169.511 135.92 169.158 135.302 168.536C134.683 167.914 134.338 167.072 134.341 166.197ZM117.555 166.197C117.551 165.763 117.634 165.332 117.798 164.93C117.962 164.528 118.205 164.163 118.511 163.854C118.818 163.546 119.183 163.301 119.585 163.134C119.987 162.967 120.418 162.881 120.853 162.881C121.732 162.885 122.573 163.237 123.191 163.858C123.81 164.48 124.155 165.321 124.152 166.197C124.153 167.072 123.807 167.912 123.189 168.534C122.571 169.155 121.731 169.508 120.853 169.516C119.974 169.512 119.133 169.16 118.514 168.537C117.896 167.915 117.551 167.073 117.555 166.197ZM100.771 166.197C100.767 165.764 100.848 165.335 101.011 164.934C101.173 164.533 101.413 164.168 101.718 163.86C102.022 163.552 102.385 163.307 102.785 163.139C103.185 162.971 103.614 162.883 104.048 162.881C104.483 162.881 104.914 162.967 105.317 163.134C105.719 163.301 106.084 163.546 106.391 163.854C106.697 164.162 106.94 164.528 107.105 164.93C107.269 165.332 107.352 165.763 107.349 166.197C107.351 166.631 107.268 167.061 107.103 167.462C106.939 167.864 106.696 168.229 106.39 168.537C106.084 168.846 105.72 169.091 105.318 169.259C104.917 169.427 104.487 169.514 104.051 169.516C103.617 169.513 103.188 169.424 102.788 169.256C102.389 169.087 102.026 168.842 101.722 168.534C101.417 168.225 101.176 167.86 101.013 167.459C100.85 167.058 100.768 166.629 100.771 166.197ZM83.9657 166.197C83.9634 165.763 84.0468 165.333 84.2114 164.932C84.3759 164.53 84.6183 164.165 84.9246 163.857C85.2309 163.549 85.5951 163.305 85.9964 163.137C86.3977 162.97 86.8282 162.883 87.2632 162.881C87.6986 162.882 88.1295 162.968 88.5313 163.135C88.933 163.302 89.2976 163.547 89.6041 163.855C89.9106 164.163 90.1529 164.529 90.3171 164.931C90.4813 165.333 90.5641 165.763 90.5608 166.197C90.5648 167.073 90.2197 167.914 89.6013 168.537C88.983 169.159 88.142 169.511 87.2632 169.516C86.3848 169.51 85.5446 169.157 84.9266 168.535C84.3085 167.913 83.963 167.072 83.9657 166.197ZM67.1788 166.197C67.1763 165.763 67.2596 165.334 67.4238 164.933C67.5881 164.531 67.8301 164.166 68.136 163.858C68.4419 163.55 68.8057 163.306 69.2067 163.138C69.6076 162.97 70.0378 162.883 70.4726 162.881C70.9082 162.882 71.3393 162.969 71.7411 163.137C72.1429 163.305 72.5074 163.55 72.8138 163.859C73.1201 164.168 73.3622 164.534 73.5261 164.936C73.69 165.338 73.7725 165.769 73.7689 166.203C73.7712 167.078 73.4254 167.918 72.8072 168.539C72.189 169.16 71.349 169.511 70.4713 169.516C69.5937 169.509 68.7546 169.156 68.1375 168.534C67.5205 167.912 67.1758 167.072 67.1788 166.197ZM50.3894 166.203C50.3849 165.768 50.467 165.337 50.6309 164.934C50.7948 164.531 51.0373 164.164 51.3444 163.855C51.6514 163.546 52.0169 163.301 52.4196 163.134C52.8224 162.967 53.2544 162.881 53.6907 162.881C54.1256 162.883 54.5558 162.971 54.9568 163.138C55.3578 163.306 55.7217 163.551 56.0278 163.859C56.3339 164.166 56.5761 164.531 56.7407 164.933C56.9053 165.334 56.989 165.763 56.987 166.197C56.988 167.072 56.6414 167.913 56.0229 168.535C55.4044 169.157 54.5642 169.509 53.6857 169.516C52.8087 169.511 51.9695 169.159 51.3524 168.538C50.7353 167.917 50.3907 167.077 50.3944 166.203H50.3894ZM33.6025 166.203C33.5977 165.769 33.6794 165.337 33.8429 164.935C34.0063 164.532 34.2484 164.165 34.555 163.856C34.8615 163.547 35.2265 163.302 35.6289 163.135C36.0312 162.967 36.4628 162.881 36.8988 162.881C37.3339 162.883 37.7643 162.97 38.1656 163.137C38.5669 163.305 38.9311 163.55 39.2375 163.858C39.5438 164.166 39.7863 164.531 39.9511 164.932C40.1158 165.333 40.1996 165.763 40.1976 166.197C40.1996 167.072 39.8537 167.913 39.2355 168.535C38.6173 169.157 37.7772 169.51 36.8988 169.516C36.464 169.515 36.0338 169.428 35.6327 169.26C35.2316 169.093 34.8676 168.848 34.5615 168.541C34.2553 168.233 34.013 167.868 33.8485 167.467C33.6839 167.066 33.6003 166.636 33.6025 166.203ZM16.8143 166.197C16.8108 165.763 16.8936 165.332 17.0577 164.931C17.2218 164.529 17.4641 164.163 17.7706 163.855C18.0772 163.547 18.4418 163.302 18.8437 163.135C19.2455 162.968 19.6765 162.882 20.1119 162.881C20.547 162.883 20.9775 162.969 21.3788 163.137C21.7801 163.304 22.1443 163.549 22.4505 163.857C22.7567 164.165 22.9989 164.53 23.1633 164.932C23.3276 165.333 23.4108 165.763 23.4082 166.197C23.4099 167.072 23.0642 167.912 22.4466 168.534C21.8291 169.156 20.9898 169.509 20.1119 169.516C19.6766 169.514 19.2459 169.427 18.8445 169.259C18.4432 169.091 18.0789 168.846 17.7726 168.538C17.4664 168.23 17.2241 167.864 17.0596 167.462C16.8952 167.061 16.8118 166.631 16.8143 166.197Z" fill="white"/>
</g>
</g>
<g opacity="0.91">
<g opacity="0.91">
<path opacity="0.91" d="M188.002 169.512C187.127 169.506 186.291 169.155 185.674 168.537C185.057 167.912 184.709 167.073 184.702 166.197C184.693 165.759 184.772 165.323 184.935 164.916C185.097 164.508 185.339 164.137 185.647 163.824C185.955 163.511 186.323 163.263 186.728 163.093C187.134 162.923 187.569 162.836 188.009 162.836C188.449 162.836 188.884 162.923 189.289 163.093C189.695 163.263 190.062 163.511 190.37 163.824C190.678 164.137 190.92 164.508 191.083 164.916C191.245 165.323 191.324 165.759 191.316 166.197C191.309 167.073 190.959 167.913 190.342 168.537C190.035 168.845 189.671 169.089 189.269 169.257C188.868 169.424 188.437 169.511 188.002 169.512Z" fill="white"/>
</g>
</g>
</g>
<g opacity="0.91">
<g opacity="0.91">
<g opacity="0.91">
<path opacity="0.91" d="M3.32455 187.197C2.44748 187.193 1.60638 186.849 0.98079 186.236C0.671768 185.931 0.426113 185.568 0.25783 185.168C0.0895465 184.768 0.00195791 184.339 3.2443e-05 183.905C-0.00189302 183.472 0.0819057 183.042 0.246631 182.64C0.411357 182.239 0.653782 181.874 0.96008 181.566C1.26638 181.258 1.63053 181.013 2.03177 180.845C2.43301 180.678 2.86349 180.59 3.29859 180.588C3.73368 180.586 4.16488 180.67 4.56759 180.834C4.97031 180.998 5.33663 181.24 5.64565 181.545C6.26189 182.171 6.60711 183.013 6.60711 183.891C6.60711 184.768 6.26189 185.61 5.64565 186.236C5.02776 186.846 4.19453 187.191 3.32455 187.197Z" fill="white"/>
</g>
</g>
<g opacity="0.91">
<g opacity="0.91">
<path opacity="0.91" d="M167.917 183.881C167.915 183.005 168.261 182.164 168.88 181.542C169.498 180.92 170.339 180.567 171.217 180.561C172.096 180.566 172.937 180.918 173.555 181.541C174.173 182.163 174.518 183.005 174.514 183.881C174.517 184.315 174.435 184.745 174.271 185.147C174.107 185.549 173.865 185.915 173.558 186.223C173.252 186.532 172.887 186.777 172.486 186.944C172.084 187.111 171.653 187.197 171.217 187.198C170.782 187.196 170.351 187.108 169.95 186.941C169.549 186.773 169.184 186.528 168.878 186.22C168.572 185.912 168.329 185.547 168.164 185.146C167.999 184.744 167.915 184.314 167.917 183.881ZM151.129 183.881C151.127 183.005 151.473 182.165 152.091 181.543C152.709 180.921 153.548 180.568 154.427 180.561C155.305 180.568 156.145 180.921 156.764 181.543C157.382 182.165 157.729 183.005 157.728 183.881C157.731 184.757 157.385 185.599 156.766 186.222C156.147 186.844 155.306 187.197 154.427 187.201C153.548 187.195 152.708 186.842 152.09 186.219C151.472 185.597 151.127 184.756 151.129 183.881ZM134.34 183.881C134.336 183.005 134.682 182.163 135.3 181.541C135.919 180.919 136.76 180.566 137.638 180.561C138.517 180.569 139.357 180.922 139.975 181.544C140.594 182.165 140.942 183.005 140.942 183.881C140.944 184.757 140.598 185.599 139.978 186.221C139.359 186.844 138.518 187.196 137.638 187.201C137.203 187.2 136.772 187.112 136.371 186.944C135.969 186.777 135.605 186.531 135.298 186.223C134.992 185.915 134.75 185.549 134.585 185.147C134.421 184.745 134.338 184.315 134.341 183.881H134.34ZM117.559 183.881C117.556 183.447 117.639 183.017 117.804 182.615C117.968 182.213 118.21 181.847 118.517 181.539C118.823 181.231 119.187 180.985 119.589 180.818C119.99 180.65 120.421 180.563 120.857 180.561C121.734 180.569 122.573 180.922 123.19 181.544C123.808 182.166 124.153 183.006 124.15 183.881C124.152 184.314 124.069 184.744 123.904 185.146C123.74 185.547 123.497 185.913 123.191 186.221C122.884 186.529 122.52 186.773 122.119 186.941C121.717 187.109 121.287 187.196 120.852 187.198C120.416 187.197 119.985 187.111 119.584 186.944C119.182 186.776 118.818 186.532 118.512 186.223C118.205 185.915 117.964 185.549 117.8 185.147C117.637 184.745 117.555 184.315 117.559 183.881ZM100.751 183.881C100.749 183.006 101.095 182.166 101.712 181.544C102.33 180.922 103.169 180.569 104.047 180.561C104.482 180.563 104.913 180.651 105.315 180.818C105.717 180.986 106.081 181.231 106.388 181.539C106.694 181.848 106.937 182.213 107.102 182.615C107.267 183.016 107.35 183.447 107.348 183.881C107.352 184.315 107.269 184.745 107.105 185.147C106.941 185.549 106.699 185.915 106.393 186.223C106.086 186.532 105.721 186.777 105.319 186.944C104.917 187.111 104.486 187.197 104.051 187.198C103.616 187.196 103.185 187.109 102.783 186.941C102.382 186.774 102.018 186.529 101.711 186.221C101.405 185.913 101.162 185.547 100.997 185.146C100.833 184.744 100.749 184.314 100.751 183.881ZM83.9651 183.881C83.9625 183.005 84.3078 182.165 84.9256 181.543C85.5434 180.92 86.3833 180.568 87.2614 180.561C87.6969 180.564 88.1278 180.651 88.5292 180.82C88.9307 180.988 89.295 181.233 89.6013 181.542C89.9077 181.851 90.15 182.216 90.3145 182.618C90.479 183.02 90.5626 183.45 90.5602 183.884C90.5627 184.318 90.4793 184.748 90.3149 185.15C90.1504 185.551 89.9081 185.917 89.6018 186.225C89.2955 186.533 88.9312 186.778 88.5298 186.945C88.1284 187.113 87.6979 187.2 87.2627 187.201C86.3841 187.195 85.5437 186.842 84.9256 186.22C84.3075 185.598 83.9621 184.756 83.9651 183.881ZM67.177 183.881C67.1756 183.006 67.5212 182.166 68.1385 181.544C68.7557 180.923 69.5945 180.569 70.472 180.561C70.9075 180.563 71.3384 180.65 71.7401 180.818C72.1418 180.986 72.5064 181.231 72.813 181.539C73.1196 181.847 73.3622 182.213 73.527 182.615C73.6918 183.016 73.7755 183.447 73.7733 183.881C73.7768 184.315 73.6941 184.745 73.53 185.147C73.3659 185.549 73.1236 185.915 72.8171 186.223C72.5106 186.531 72.1459 186.776 71.7441 186.943C71.3423 187.111 70.9113 187.197 70.4758 187.198C70.0406 187.196 69.6101 187.109 69.2087 186.941C68.8073 186.773 68.443 186.529 68.1366 186.221C67.8303 185.913 67.5878 185.547 67.4231 185.146C67.2585 184.744 67.1748 184.314 67.177 183.881ZM50.3888 183.881C50.3868 183.006 50.7324 182.165 51.35 181.543C51.9677 180.921 52.8072 180.568 53.6852 180.561C54.5634 180.568 55.4034 180.92 56.0214 181.543C56.6394 182.165 56.9851 183.005 56.9827 183.881C56.9855 184.315 56.9024 184.745 56.738 185.146C56.5737 185.548 56.3313 185.913 56.025 186.222C55.7186 186.53 55.3542 186.775 54.9527 186.942C54.5511 187.11 54.1204 187.196 53.6852 187.198C53.2505 187.195 52.8204 187.108 52.4197 186.94C52.019 186.772 51.6554 186.527 51.3497 186.219C51.044 185.911 50.8023 185.546 50.6383 185.145C50.4743 184.743 50.3912 184.314 50.3939 183.881H50.3888ZM33.6019 183.881C33.5996 183.447 33.6832 183.016 33.8479 182.615C34.0125 182.213 34.255 181.847 34.5615 181.539C34.868 181.231 35.2325 180.986 35.6341 180.818C36.0357 180.65 36.4666 180.563 36.902 180.561C37.7789 180.569 38.6173 180.921 39.2345 181.542C39.8518 182.163 40.1978 183.002 40.1971 183.876C40.1994 184.31 40.1157 184.741 39.9509 185.143C39.786 185.545 39.5432 185.911 39.2363 186.22C38.9294 186.528 38.5645 186.773 38.1625 186.941C37.7604 187.109 37.3291 187.196 36.8932 187.198C36.4581 187.197 36.0274 187.11 35.626 186.943C35.2246 186.776 34.8604 186.531 34.5545 186.222C34.2485 185.914 34.0068 185.548 33.8433 185.146C33.6798 184.745 33.5978 184.314 33.6019 183.881ZM16.8126 183.881C16.8099 183.447 16.8932 183.016 17.0577 182.615C17.2221 182.213 17.4645 181.847 17.7709 181.539C18.0774 181.23 18.4418 180.985 18.8434 180.818C19.2451 180.65 19.6759 180.563 20.1114 180.561C20.9891 180.57 21.8279 180.923 22.4455 181.545C23.0632 182.166 23.4099 183.006 23.4102 183.881C23.4125 184.756 23.0668 185.597 22.4485 186.22C21.8303 186.842 20.99 187.195 20.1114 187.201C19.6759 187.199 19.2451 187.112 18.8436 186.944C18.442 186.776 18.0776 186.531 17.7712 186.223C17.4648 185.914 17.2225 185.549 17.058 185.147C16.8935 184.745 16.8101 184.315 16.8126 183.881Z" fill="white"/>
</g>
</g>
<g opacity="0.91">
<g opacity="0.91">
<path opacity="0.91" d="M188.002 187.197C187.13 187.194 186.294 186.849 185.674 186.237C185.058 185.605 184.709 184.762 184.7 183.881C184.707 183.342 184.846 182.813 185.105 182.34C185.365 181.867 185.737 181.465 186.188 181.17C186.64 180.874 187.158 180.693 187.696 180.643C188.235 180.594 188.777 180.677 189.276 180.885C189.774 181.093 190.214 181.42 190.556 181.838C190.898 182.255 191.132 182.75 191.237 183.278C191.342 183.807 191.316 184.353 191.16 184.869C191.004 185.385 190.723 185.854 190.342 186.237C189.718 186.849 188.878 187.194 188.002 187.197Z" fill="white"/>
</g>
</g>
</g>
</g>
</g>
</svg>
